<svg width="100" height="128" viewBox="0 0 100 128" fill="none" xmlns="http://www.w3.org/2000/svg">
<path d="M15.0876 25.0999C15.0876 25.0999 12.1432 23.958 11.1066 24.8133C10.0707 25.6687 10.6537 32.041 11.8837 32.2781C13.1144 32.5144 14.7581 32.2781 14.7581 32.2781L15.0876 25.0999Z" fill="#F8C83D"/>
<path d="M11.1719 27.6064C11.1719 27.6064 8.25804 26.5731 7.41615 27.6064C6.57427 28.6396 11.5601 29.4148 11.5601 29.4148L11.1719 27.6064Z" fill="#F8C83D"/>
<path d="M73.9736 24.5297C73.9736 24.5297 77.3035 23.6261 78.8144 24.5297C80.3253 25.4317 78.7711 31.7611 78.0371 31.9763C77.3035 32.1915 74.4565 31.54 74.4565 31.54L73.9736 24.5297Z" fill="#F8C83D"/>
<path d="M78.8573 27.4987C78.8573 27.4987 82.3542 27.3696 83.0877 28.5323C83.8218 29.6949 78.3393 29.3068 78.3393 29.3068L78.8573 27.4987Z" fill="#F8C83D"/>
<path d="M25.1035 72.8363C25.1035 72.8363 22.3848 72.7069 21.7804 73.611C21.1761 74.5151 20.2697 81.3179 20.3124 84.5901C20.3559 87.8623 20.14 89.4552 25.6222 89.5844L25.9314 91.5458C25.9314 91.5458 21.4348 91.5647 19.6436 89.9286C17.8524 88.2926 18.7589 77.6155 19.1907 75.3332C19.6219 73.0516 20.0516 70.6407 25.1035 71.3728V72.8363Z" fill="#40496B"/>
<path d="M22.8643 91.5301C22.9934 91.5301 23.1158 91.4556 23.171 91.3302C23.4239 90.7544 23.5813 90.1449 23.6392 89.5189C23.6553 89.3354 23.5201 89.173 23.3358 89.1565C23.1522 89.1397 22.9887 89.2746 22.9726 89.4584C22.9215 90.0128 22.7822 90.5525 22.5582 91.0624C22.4842 91.2311 22.5616 91.4281 22.7304 91.5021C22.7741 91.521 22.8192 91.5301 22.8643 91.5301Z" fill="#F8F9B3"/>
<path d="M20.2321 90.3246C20.3265 90.3246 20.4201 90.2856 20.4863 90.209L21.6124 88.9069C21.7329 88.7675 21.717 88.5569 21.5772 88.4364C21.4374 88.3159 21.226 88.3315 21.1054 88.4709L19.9793 89.773C19.8588 89.9125 19.8746 90.1235 20.0145 90.2436C20.0771 90.2983 20.155 90.3246 20.2321 90.3246Z" fill="#F8F9B3"/>
<path d="M19.0775 87.7042C19.104 87.7042 19.1304 87.701 19.1562 87.6948C19.6091 87.5858 20.0551 87.4369 20.4824 87.2522C20.6514 87.179 20.7294 86.9824 20.6563 86.8134C20.5825 86.6444 20.3856 86.567 20.2166 86.6402C19.8241 86.8097 19.4143 86.9463 18.9996 87.0462C18.8201 87.0889 18.7095 87.2695 18.7526 87.4484C18.7895 87.6014 18.9265 87.7042 19.0775 87.7042Z" fill="#F8F9B3"/>
<path d="M20.3446 84.4017C20.5114 84.4017 20.6558 84.277 20.6767 84.1076C20.6984 83.9245 20.5672 83.7584 20.3844 83.7366C19.8345 83.6712 19.2763 83.6408 18.723 83.6461C18.5381 83.6478 18.3895 83.7987 18.3916 83.9829C18.393 84.1672 18.5423 84.3145 18.7293 84.3132C19.2533 84.3083 19.7836 84.3371 20.3048 84.3992C20.3181 84.4008 20.3314 84.4017 20.3446 84.4017Z" fill="#F8F9B3"/>
<path d="M20.5056 81.3155C20.6732 81.3155 20.8177 81.1901 20.8373 81.0202C20.8582 80.8368 20.7269 80.6714 20.5433 80.6505L18.6992 80.4391C18.5162 80.4181 18.35 80.5497 18.3291 80.7327C18.3081 80.9157 18.4394 81.0811 18.6231 81.1021L20.4665 81.3135C20.4797 81.3151 20.4923 81.3155 20.5056 81.3155Z" fill="#F8F9B3"/>
<path d="M20.7676 78.5162C20.8963 78.5162 21.0194 78.4414 21.0744 78.3155C21.1482 78.1469 21.0702 77.9503 20.9012 77.8767C20.325 77.6258 19.6884 77.4839 19.0601 77.4654C18.8736 77.46 18.7205 77.6052 18.7157 77.789C18.7101 77.9733 18.8555 78.1271 19.0406 78.1325C19.584 78.1485 20.1351 78.2715 20.634 78.4883C20.6771 78.5071 20.7223 78.5162 20.7676 78.5162Z" fill="#F8F9B3"/>
<path d="M21.1821 76.2079C21.3194 76.2079 21.4484 76.1228 21.497 75.9859C21.5594 75.8123 21.4685 75.6214 21.2945 75.5598L19.5774 74.9491C19.4034 74.8875 19.212 74.9781 19.1502 75.1517C19.0878 75.3253 19.1787 75.5162 19.3527 75.5778L21.0698 76.1885C21.1072 76.2017 21.1447 76.2079 21.1821 76.2079Z" fill="#F8F9B3"/>
<path d="M21.7081 73.9628C21.7959 73.9628 21.8843 73.928 21.9501 73.8596C22.0776 73.7263 22.0728 73.5151 21.9391 73.3879C21.604 73.068 21.314 72.7037 21.0783 72.3051C20.9844 72.1465 20.7794 72.0939 20.6198 72.1876C20.4614 72.2812 20.408 72.4856 20.5019 72.6442C20.7692 73.0954 21.0968 73.5082 21.4772 73.8699C21.5416 73.9321 21.6252 73.9628 21.7081 73.9628Z" fill="#F8F9B3"/>
<path d="M23.3801 73.0947C23.3881 73.0947 23.3955 73.0947 23.4028 73.0941C23.5877 73.082 23.727 72.923 23.7143 72.7393L23.6199 71.3183C23.6078 71.1345 23.4477 70.9956 23.2635 71.0076C23.0793 71.0196 22.94 71.1786 22.952 71.3624L23.0465 72.7834C23.0585 72.9598 23.2059 73.0947 23.3801 73.0947Z" fill="#F8F9B3"/>
<path d="M3.96353 51.2881C4.36437 51.4292 4.67821 51.5695 4.92376 51.7025C5.75145 52.1509 5.80917 52.515 5.80917 52.515C5.80917 52.515 7.7727 52.1817 9.21913 50.1033C9.21913 50.1033 9.26629 49.8349 9.34759 49.474C9.47524 48.9113 9.6842 48.1222 9.9208 47.7679C10.3086 47.1872 11.442 45.4754 10.7298 44.8939C10.0175 44.3133 7.94589 47.4994 7.94589 47.4994C7.94589 47.4994 7.10356 45.7341 6.81248 44.5712C6.5206 43.4091 6.58564 42.3119 5.80917 42.3436C5.03189 42.376 5.58233 45.8954 5.93845 47.0907C5.93845 47.0907 3.80174 42.5366 2.73257 42.7628C1.66503 42.9891 4.38389 47.7038 4.38389 47.7038C4.38389 47.7038 1.14711 44.4747 0.369018 44.7334C-0.403385 44.9896 1.73657 47.7046 3.13015 48.5926C2.86022 48.4263 0.44382 46.9504 0.0454226 47.3162C-0.374927 47.7038 2.21546 50.6742 3.96353 51.2881Z" fill="#F5A783"/>
<path d="M42.9105 54.3232L48.6632 53.8611L48.2142 51.269L47.8316 49.0597H43.1371L43.0271 51.6279L42.9105 54.3232Z" fill="#F5A783"/>
<path d="M43.0273 51.6288C44.4556 51.6199 45.9719 51.541 46.2311 51.5102C46.6111 51.4651 47.5518 51.4414 48.2142 51.2694L47.9234 49.5887C46.6711 49.7832 45.4028 49.8698 44.1565 49.8698C43.8039 49.8698 43.4525 49.8627 43.1034 49.8496L43.0273 51.6288Z" fill="#F18762"/>
<path d="M26.9172 65.9797C26.9172 65.9797 27.5 87.7599 27.9537 91.5458C28.4068 95.3321 31.7864 98.6257 41.7191 97.0756L33.1334 77.8306L32.2918 66.4645L26.9172 65.9797Z" fill="#F8C83D"/>
<path d="M60.8997 32.4042C60.8997 32.4042 62.4002 30.202 65.0551 31.4288C67.7099 32.6556 66.9747 40.4996 59.7666 39.1931L60.8997 32.4042Z" fill="#F5A783"/>
<path d="M61.6354 37.3898C63.8172 37.3891 64.6106 34.6447 63.8572 33.7859C63.3446 33.2016 62.837 33.005 62.3857 33.005C61.4668 33.005 60.7828 33.82 60.7674 33.838C60.6567 34.8566 60.4978 35.9558 60.2728 37.0744C60.7744 37.2946 61.2286 37.3898 61.6354 37.3898Z" fill="#F18762"/>
<path d="M26.6581 32.7209C26.6581 32.7209 24.5865 30.8805 22.4177 31.8495C20.2481 32.8178 21.0898 39.9542 25.3636 39.5345C28.3741 39.1147 28.1477 37.1774 28.1477 37.1774L26.6581 32.7209Z" fill="#F5A783"/>
<path d="M26.0293 37.5106C26.1076 37.5106 26.1879 37.5065 26.2697 37.4996C26.6944 37.409 26.9985 37.3185 27.2168 37.2363C27.074 36.7505 26.9389 36.2585 26.8122 35.7631C26.7948 35.732 26.445 35.0935 26.1332 33.9126C25.8429 33.7557 25.4723 33.6244 25.0489 33.6244C24.8224 33.6244 24.5806 33.6618 24.327 33.7537C22.9476 34.2539 23.6328 37.5106 26.0293 37.5106Z" fill="#F18762"/>
<path d="M61.9324 56.2225C61.9324 56.2225 77.7143 52.4746 94.0314 63.7642C94.0314 63.7642 92.4738 64.3977 91.6176 65.9799C91.6176 65.9799 81.3942 60.1786 62.7031 65.4742L61.9324 56.2225Z" fill="#73D0C9"/>
<path d="M60.6526 55.2048C60.6526 55.2048 63.5016 55.098 64.7313 59.2958C65.9621 63.4936 63.8897 67.1098 60.6526 67.3682L58.7747 59.7482L60.6526 55.2048Z" fill="#40496B"/>
<path d="M79.0573 56.9823C79.2758 56.5868 79.5171 56.1735 79.9125 55.9527C80.5571 55.5934 81.3575 55.8637 82.0424 56.1385C82.5806 56.3549 83.1579 56.6035 83.449 57.1046C83.7187 57.5685 83.6778 58.1576 83.4952 58.6615C83.3125 59.166 83.0032 59.6138 82.7418 60.0821C82.2585 60.9487 81.9348 61.8948 81.475 62.7736C81.0148 63.6519 80.3835 64.4907 79.489 64.9229C78.5946 65.3551 77.3971 65.2739 76.7431 64.5274C76.22 63.9311 76.1441 63.0456 76.3494 62.2803C76.5897 61.3848 77.1827 60.6606 77.5782 59.8362C78.0416 58.8706 78.5402 57.9206 79.0573 56.9823Z" fill="#40496B"/>
<path d="M79.0741 64.098C79.2106 64.098 79.3385 64.014 79.3883 63.8791C80.0869 61.9818 81.0275 60.1777 82.1834 58.5172C82.2889 58.366 82.2514 58.1585 82.0992 58.0529C81.9479 57.9478 81.7392 57.9852 81.6337 58.1369C80.4452 59.8435 79.4782 61.6985 78.7599 63.6489C78.6964 63.8217 78.7854 64.0135 78.9587 64.0774C78.997 64.091 79.0358 64.098 79.0741 64.098Z" fill="#F8F9B3"/>
<path d="M77.7806 62.8484C77.9195 62.8484 78.0495 62.761 78.0969 62.6228C78.6895 60.9018 79.5303 59.2802 80.5962 57.8033C80.7042 57.6537 80.67 57.4456 80.5199 57.3374C80.3703 57.2298 80.1612 57.2642 80.0531 57.4133C78.9488 58.9432 78.0779 60.6232 77.4643 62.4065C77.4041 62.5808 77.4973 62.7703 77.6721 62.8304C77.708 62.8424 77.7447 62.8484 77.7806 62.8484Z" fill="#F8F9B3"/>
<path d="M59.0673 58.5007C59.0727 58.5007 59.0782 58.5007 59.0842 58.5002L63.6154 58.2761C63.7997 58.2669 63.942 58.1102 63.9328 57.9264C63.9235 57.742 63.7675 57.6006 63.5816 57.6098L59.0509 57.8334C58.8666 57.8426 58.7243 57.9992 58.733 58.1831C58.7423 58.362 58.8901 58.5007 59.0673 58.5007Z" fill="#F8F9B3"/>
<path d="M63.8665 61.3917C64.0255 61.3917 64.1659 61.2787 64.1951 61.1175C64.2281 60.9361 64.1074 60.7626 63.9255 60.7298L58.9328 59.8318C58.7504 59.7989 58.5765 59.9193 58.5441 60.1007C58.5111 60.2821 58.6318 60.4555 58.8137 60.4884L63.8069 61.3864C63.8266 61.3901 63.8468 61.3917 63.8665 61.3917Z" fill="#F8F9B3"/>
<path d="M62.9563 64.2654C63.0921 64.2654 63.2202 64.182 63.2703 64.047C63.3343 63.8745 63.246 63.6829 63.073 63.6185L59.6727 62.3612C59.4997 62.2973 59.3071 62.3854 59.2425 62.5579C59.1785 62.731 59.2668 62.9226 59.4403 62.987L62.8401 64.2443C62.8783 64.2587 62.9175 64.2654 62.9563 64.2654Z" fill="#F8F9B3"/>
<path d="M30.6302 57.5437C30.6302 57.5437 16.6866 56.7778 9.21923 50.1036C9.21923 50.1036 8.26915 51.9123 5.8087 52.5151C5.8087 52.5151 17.8955 67.9719 33.4789 68.3159L30.6302 57.5437Z" fill="#73D0C9"/>
<path d="M30.5433 57.2393C30.5433 57.2393 27.5652 57.0998 26.3348 60.7814C25.1043 64.4623 26.6584 69.758 31.3851 70.4037L32.7448 58.7147L30.5433 57.2393Z" fill="#40496B"/>
<path d="M27.1759 61.084C27.1862 61.084 27.1966 61.084 27.2076 61.0828L31.6727 60.6691C31.8568 60.6524 31.9919 60.49 31.9751 60.3064C31.9576 60.1227 31.7948 59.9881 31.6114 60.0048L27.1456 60.4185C26.9614 60.4352 26.8264 60.5976 26.8432 60.7812C26.8594 60.9545 27.0054 61.084 27.1759 61.084Z" fill="#F8F9B3"/>
<path d="M27.3696 64.116C27.3909 64.116 27.4128 64.1134 27.4354 64.1095L31.5763 63.2888C31.7575 63.2534 31.8755 63.0778 31.8394 62.8964C31.8033 62.7163 31.6279 62.5986 31.446 62.6347L27.3051 63.4547C27.1233 63.4908 27.0059 63.6664 27.042 63.8471C27.0736 64.006 27.2135 64.116 27.3696 64.116Z" fill="#F8F9B3"/>
<path d="M27.8581 67.2249C27.8889 67.2249 27.9204 67.2211 27.9512 67.2121C29.1112 66.8772 30.2623 66.4688 31.3735 65.9981C31.5436 65.9258 31.6226 65.7299 31.5507 65.5602C31.4781 65.3905 31.2817 65.3118 31.1116 65.3835C30.0254 65.8438 28.8994 66.244 27.7651 66.5706C27.5879 66.6224 27.4858 66.8075 27.5372 66.9842C27.5795 67.1302 27.7131 67.2249 27.8581 67.2249Z" fill="#F8F9B3"/>
<path d="M61.0083 28.3612C61.0083 28.3612 61.5914 42.3111 55.0838 46.8644C48.5764 51.417 38.5719 49.9637 34.0075 47.9297C29.4422 45.8956 26.5289 36.9834 25.655 29.5244C25.655 29.5244 35.3809 14.2184 43.3386 16.3497C51.2958 18.4809 60.2315 25.1647 61.0083 28.3612Z" fill="#F5A783"/>
<path d="M42.3283 18.158C42.3283 18.158 40.8387 26.0364 33.263 29.3945C33.263 29.3945 33.263 28.1027 34.3638 26.1659C34.3638 26.1659 30.867 30.1699 24.3276 30.5568C24.3276 30.5568 24.8453 14.8642 35.788 11.9582C42.846 10.4725 43.6871 13.895 43.6871 13.895C43.6871 13.895 50.4863 8.27669 57.2853 13.5081C64.084 18.7387 62.7241 28.0384 62.0766 31.2026C62.0766 31.2026 59.2276 28.4261 56.8969 27.3282C56.8969 27.3282 58.9039 29.1363 59.1628 30.2342C59.1628 30.2342 51.9109 29.5883 48.285 24.2926C48.285 24.2926 49.5798 27.3925 51.5225 29.0076C51.5225 29.0076 43.6871 27.1987 42.3283 18.158Z" fill="#5A353E"/>
<path d="M33.3596 35.1744C33.3596 36.7621 34.65 38.0485 36.2412 38.0485C37.8331 38.0485 39.1228 36.7621 39.1228 35.1744C39.1228 33.5874 37.8331 32.301 36.2412 32.301C34.65 32.301 33.3596 33.5874 33.3596 35.1744Z" fill="white"/>
<path d="M34.5259 35.4172C34.5259 36.2819 35.2284 36.9833 36.0955 36.9833C36.9632 36.9833 37.6657 36.2819 37.6657 35.4172C37.6657 34.5524 36.9632 33.8511 36.0955 33.8511C35.2284 33.8511 34.5259 34.5524 34.5259 35.4172Z" fill="#5A353E"/>
<path d="M35.4294 34.6895C35.3014 34.8165 35.0261 34.7489 34.8144 34.5371C34.602 34.3259 34.5335 34.0513 34.6615 33.9237C34.7895 33.7961 35.0648 33.8644 35.2772 34.0755C35.4889 34.2873 35.5567 34.5619 35.4294 34.6895Z" fill="white"/>
<path d="M36.6631 36.0816C36.5573 36.1871 36.3295 36.1306 36.1534 35.9558C35.9781 35.7802 35.9215 35.5529 36.0272 35.4474C36.133 35.342 36.3608 35.3985 36.5369 35.5733C36.7122 35.7482 36.7688 35.9762 36.6631 36.0816Z" fill="white"/>
<path d="M48.1438 34.8177C48.1438 36.4048 49.4341 37.6917 51.0253 37.6917C52.6165 37.6917 53.9068 36.4048 53.9068 34.8177C53.9068 33.2307 52.6165 31.9438 51.0253 31.9438C49.4341 31.9438 48.1438 33.2307 48.1438 34.8177Z" fill="white"/>
<path d="M49.3095 35.06C49.3095 35.9248 50.0121 36.6255 50.8799 36.6255C51.7469 36.6255 52.4495 35.9248 52.4495 35.06C52.4495 34.1953 51.7469 33.4938 50.8799 33.4938C50.0121 33.4938 49.3095 34.1953 49.3095 35.06Z" fill="#5A353E"/>
<path d="M50.2134 34.3323C50.0857 34.4596 49.8102 34.3918 49.5985 34.18C49.3862 33.9689 49.3175 33.6941 49.4459 33.5668C49.5736 33.4394 49.8491 33.5072 50.0607 33.719C50.2731 33.9301 50.3411 34.2049 50.2134 34.3323Z" fill="white"/>
<path d="M51.4469 35.7247C51.3408 35.8298 51.1129 35.7738 50.9377 35.5984C50.7618 35.4236 50.705 35.1956 50.8111 35.0905C50.9165 34.9847 51.1451 35.0413 51.3203 35.2161C51.4962 35.3915 51.5523 35.6188 51.4469 35.7247Z" fill="white"/>
<path d="M32.097 31.5676L32.5073 32.1501C32.5073 32.1501 34.6871 31.2461 35.8747 31.0958C37.0616 30.9448 38.4425 31.0527 38.7879 30.5787C39.1333 30.1055 38.4425 29.0289 36.7372 29.3086C35.0325 29.5884 32.9176 30.7038 32.097 31.5676Z" fill="#5A353E"/>
<path d="M54.0264 30.9445L54.1339 31.806C54.1339 31.806 51.3485 30.9021 49.3092 30.8589C47.2707 30.8157 46.7093 30.7077 46.7309 29.8254C46.7526 28.943 49.1144 29.2014 50.8794 29.5886C52.6445 29.9758 53.7024 30.7293 54.0264 30.9445Z" fill="#5A353E"/>
<path d="M34.4988 39.3895C35.2354 39.8755 35.6692 40.5159 35.4675 40.8213C35.2652 41.1266 34.5041 40.9796 33.7668 40.4942C33.0302 40.0081 32.5957 39.367 32.7981 39.0624C33.0004 38.757 33.7615 38.9041 34.4988 39.3895Z" fill="#F25879"/>
<path d="M52.7997 39.648C52.0628 40.1342 51.6288 40.775 51.8306 41.0803C52.0332 41.3849 52.7944 41.2382 53.5312 40.7527C54.2681 40.2671 54.7021 39.6263 54.5003 39.321C54.2984 39.0158 53.5372 39.1625 52.7997 39.648Z" fill="#F25879"/>
<path d="M42.7418 37.7442C42.723 38.2273 43.0515 38.6808 43.5311 38.782C43.9939 38.8798 44.4956 38.6265 44.6662 38.183C44.7616 37.9338 44.769 37.6424 44.6568 37.3965C44.6105 37.2941 44.6279 37.1721 44.732 37.1112C44.822 37.0589 44.9712 37.083 45.0182 37.1862C45.3043 37.8132 45.1209 38.5803 44.542 38.9742C43.9804 39.3568 43.1798 39.2797 42.717 38.78C42.4584 38.5006 42.3093 38.1261 42.3234 37.7442C42.3334 37.4769 42.7512 37.4756 42.7418 37.7442Z" fill="#5A353E"/>
<path d="M42.9429 44.0251C43.0665 44.5508 43.4756 44.9891 43.9901 45.1576C44.514 45.3293 45.0795 45.1853 45.4817 44.8143C45.7131 44.6011 45.8764 44.3326 45.9482 44.0264C46.01 43.7654 46.4129 43.8761 46.3517 44.1371C46.1947 44.8055 45.6607 45.3481 45.0114 45.5607C44.3456 45.7782 43.6206 45.5764 43.1131 45.1086C42.8332 44.8495 42.627 44.5074 42.54 44.1364C42.4789 43.8749 42.8817 43.7636 42.9429 44.0251Z" fill="#5A353E"/>
<path d="M57.8282 24.3413C57.8856 24.3413 57.9441 24.3201 57.9828 24.2808C58.0674 24.1968 58.0554 24.0727 57.9828 23.9863C57.4579 23.3642 57.029 22.6635 56.7087 21.9157C57.394 22.3266 58.0789 22.7381 58.7643 23.149C58.7957 23.1678 58.8315 23.1772 58.8674 23.1772C58.9226 23.1772 58.9783 23.1552 59.0175 23.1167C59.0889 23.0461 59.088 22.9502 59.0505 22.8638C58.8897 22.4962 58.7173 22.1341 58.5329 21.7783C57.8868 20.5286 57.095 19.3574 56.185 18.2845C56.1494 18.2428 56.0971 18.224 56.0435 18.224C55.9862 18.224 55.9277 18.246 55.8888 18.2845C55.8043 18.3685 55.8163 18.4934 55.8888 18.579C56.1413 18.8767 56.3841 19.1807 56.6163 19.4941C57.3008 20.4178 57.8959 21.4068 58.3961 22.4412C57.7301 22.0414 57.0641 21.6424 56.3981 21.2426C56.3672 21.2237 56.3334 21.2159 56.3 21.2159C56.1701 21.2159 56.0431 21.34 56.0909 21.4782C56.4464 22.5041 56.9866 23.4514 57.6872 24.2808C57.7222 24.3232 57.7746 24.3413 57.8282 24.3413Z" fill="#7F505D"/>
<path d="M52.6125 24.5027C52.7738 24.5027 52.9171 24.2939 52.7691 24.1471C52.1646 23.5465 51.6521 22.8619 51.2451 22.1176C51.5577 22.3382 51.8702 22.5596 52.1827 22.7802C52.3787 22.9192 52.603 23.1359 52.8596 23.1359C52.862 23.1359 52.8644 23.1359 52.8667 23.1359C53.1501 23.1311 53.2863 22.8634 53.2359 22.6122C53.1887 22.3782 53.0179 22.1772 52.8903 21.9825C52.7337 21.7446 52.577 21.5067 52.4212 21.2688C51.7883 20.3055 51.1554 19.3422 50.5225 18.3788C50.4776 18.3113 50.4131 18.283 50.3501 18.283C50.2029 18.283 50.0581 18.4322 50.1612 18.5892C50.4816 19.0768 50.802 19.5643 51.1223 20.0519C51.4112 20.4931 51.7017 20.9344 51.9914 21.3748C52.1284 21.5837 52.2661 21.7933 52.4031 22.0021C52.4794 22.1183 52.5558 22.2338 52.6321 22.35C52.6888 22.4371 52.7573 22.5227 52.7998 22.6185C52.8132 22.6483 52.8187 22.6813 52.8297 22.7119L52.8282 22.7111C52.7809 22.6907 52.7392 22.664 52.6975 22.6349C52.4873 22.4913 52.2811 22.3405 52.0732 22.1929C51.6505 21.8946 51.2286 21.5962 50.8067 21.2971C50.7783 21.2775 50.7437 21.2681 50.7083 21.2681C50.6508 21.2681 50.5918 21.2924 50.5532 21.3301C50.4824 21.4015 50.4831 21.4957 50.5209 21.5829C50.9814 22.6491 51.649 23.6226 52.4731 24.4415C52.5164 24.4847 52.566 24.5027 52.6125 24.5027Z" fill="#7F505D"/>
<path d="M37.5075 23.5051C37.5803 23.5051 37.654 23.4735 37.692 23.4087C37.9178 23.0256 38.1237 22.6313 38.3067 22.2261C38.9531 20.7945 39.3269 19.2516 39.4045 17.6826C39.4109 17.5483 39.3095 17.4819 39.2057 17.4819C39.1004 17.4819 38.9927 17.5491 38.9863 17.6826C38.9649 18.1076 38.9237 18.5319 38.8564 18.9522C38.6758 20.089 38.3328 21.1951 37.8417 22.2332C37.9336 21.3539 38.0065 20.4722 38.0572 19.5897C38.0651 19.457 37.9621 19.3875 37.8552 19.3875C37.7673 19.3875 37.677 19.4357 37.6469 19.5344C37.3063 20.6476 36.77 21.692 36.0706 22.6234C36.0024 22.7143 36.0563 22.8565 36.1458 22.9087C36.1783 22.9284 36.2124 22.9371 36.2456 22.9371C36.3177 22.9371 36.385 22.896 36.4318 22.8336C36.8666 22.2553 37.2366 21.6304 37.5407 20.9746C37.4766 21.752 37.3981 22.5286 37.3031 23.3037C37.2865 23.4332 37.3966 23.5051 37.5075 23.5051Z" fill="#7F505D"/>
<path d="M28.1156 24.6279C28.1505 24.6279 28.1868 24.6171 28.2248 24.5916C29.1039 23.9965 29.6434 23.1158 30.052 22.1686C29.987 22.9174 29.922 23.6669 29.857 24.4157C29.8469 24.5353 29.9661 24.6248 30.0783 24.6248C30.1294 24.6248 30.1789 24.6063 30.2146 24.5631C31.1735 23.3929 31.9915 22.1138 32.6424 20.7491C32.6911 20.6464 32.6718 20.5245 32.5673 20.4635C32.5364 20.4457 32.4992 20.4365 32.4621 20.4365C32.3885 20.4365 32.3135 20.4712 32.281 20.5384C31.7431 21.6677 31.0906 22.7422 30.3337 23.7387C30.4227 22.7144 30.511 21.69 30.6 20.665C30.6093 20.56 30.5133 20.4743 30.4181 20.4604C30.408 20.4589 30.398 20.4581 30.3879 20.4581C30.295 20.4581 30.2192 20.5214 30.189 20.6094C29.737 21.9371 29.2317 23.406 28.0135 24.2319C27.8293 24.357 27.9431 24.6279 28.1156 24.6279Z" fill="#7F505D"/>
<path d="M52.8517 57.6064L52.2993 53.5915L38.6154 54.0218V58.1185C38.6154 58.1185 43.2593 60.0719 52.8517 57.6064Z" fill="#F25879"/>
<path d="M47.9846 55.9882C47.9846 56.5386 48.432 56.9848 48.9832 56.9848C49.5345 56.9848 49.9819 56.5386 49.9819 55.9882C49.9819 55.4383 49.5345 54.9927 48.9832 54.9927C48.432 54.9927 47.9846 55.4383 47.9846 55.9882Z" fill="white"/>
<path d="M44.2394 56.2196C44.2394 56.7692 44.6862 57.2154 45.2378 57.2154C45.7894 57.2154 46.2362 56.7692 46.2362 56.2196C46.2362 55.6689 45.7894 55.2233 45.2378 55.2233C44.6862 55.2233 44.2394 55.6689 44.2394 56.2196Z" fill="white"/>
<path d="M40.4941 56.2196C40.4941 56.7696 40.941 57.2153 41.4925 57.2153C42.0439 57.2153 42.4914 56.7696 42.4914 56.2196C42.4914 55.6695 42.0439 55.2238 41.4925 55.2238C40.941 55.2238 40.4941 55.6695 40.4941 56.2196Z" fill="white"/>
<path d="M31.4499 58.7145C31.4499 58.7145 30.8022 71.1142 30.8022 75.0536C30.8022 78.9929 31.7085 89.5197 38.1186 95.3966C44.5292 101.273 51.587 103.34 52.7525 108.765C53.918 114.19 49.9037 126.202 53.7888 126.847C57.6738 127.494 62.2706 113.931 62.789 108.829C63.3068 103.728 62.5298 98.4965 60.7819 96.4943C60.7819 96.4943 64.1485 95.5257 65.8318 94.2339C65.8318 94.2339 77.034 97.7216 83.3148 103.921C86.3581 107.021 86.3581 114.9 86.2286 121.552C86.0991 128.204 91.2145 113.35 91.2145 113.35C91.2145 113.35 92.121 102.694 91.2145 98.4965C90.3081 94.2985 82.8616 88.8094 78.0703 87.1947C73.2786 85.5804 72.1132 84.3531 69.8468 80.4139C67.5804 76.4739 61.6235 68.5952 60.6526 64.0743C59.681 59.554 60.2641 56.2216 60.2641 56.2216C60.2641 56.2216 50.6801 60.3934 45.3386 60.1355C39.9971 59.877 31.4499 58.7145 31.4499 58.7145Z" fill="#73D0C9"/>
<path d="M38.3569 60.5233C38.3569 60.5233 37.7093 75.6781 38.9182 78.3904C40.1265 81.1028 45.3048 81.1028 50.1837 80.7158C55.0626 80.3275 57.8071 79.5673 58.7744 77.1853C59.2424 76.0339 57.6211 70.8281 56.7459 68.3156C55.8313 65.691 53.4813 59.677 53.4813 59.677L38.3569 60.5233Z" fill="#F25879"/>
<path d="M49.4506 68.9829C49.4506 70.0888 50.3494 70.9852 51.4581 70.9852C52.5664 70.9852 53.4651 70.0888 53.4651 68.9829C53.4651 67.8776 52.5664 66.9812 51.4581 66.9812C50.3494 66.9812 49.4506 67.8776 49.4506 68.9829Z" fill="white"/>
<path d="M41.7188 69.7148C41.7188 70.8206 42.6178 71.7167 43.726 71.7167C44.8347 71.7167 45.7338 70.8206 45.7338 69.7148C45.7338 68.6089 44.8347 67.7128 43.726 67.7128C42.6178 67.7128 41.7188 68.6089 41.7188 69.7148Z" fill="white"/>
<path d="M55.4939 73.8696L55.9254 76.1512C55.9254 76.1512 50.0338 78.0891 42.5334 77.1418V74.9457C42.5334 74.9457 49.4072 75.2473 55.4939 73.8696Z" fill="#F8C83D"/>
<path d="M38.1461 91.2347C36.1293 91.1372 33.9338 90.8695 32.5144 89.4366C32.0697 88.9875 31.713 88.3138 31.9797 87.7413C32.6339 86.3375 35.2268 87.4147 36.2919 87.5767C37.9792 87.8338 39.6843 87.974 41.3907 87.9979C46.2912 88.0666 51.1306 87.0091 55.8463 85.7683C60.379 84.5749 64.8094 82.8681 68.7514 80.3085C69.1709 80.0357 69.5947 79.7493 70.0795 79.6246C70.5639 79.4993 71.1321 79.5675 71.4781 79.9281C72.1853 80.6654 71.6212 81.8924 70.9033 82.3729C68.8518 83.7455 66.8405 85.3237 64.5926 86.3104C62.4605 87.2456 60.4092 88.2257 58.1773 88.9262C53.7087 90.3283 49.0343 91.0398 44.3606 91.2496C42.2827 91.3425 40.2215 91.2347 38.1461 91.2347Z" fill="#40496B"/>
<path d="M16.9424 53.9102C17.2056 53.7609 17.5123 53.6927 17.9122 53.7C18.5897 53.7123 19.2919 54.0393 19.5987 54.6679C19.912 55.3103 19.7739 56.0723 19.6096 56.7683C19.2497 58.2938 18.7961 59.7976 18.2516 61.2672C18.083 61.7218 17.8969 62.188 17.5487 62.5259C16.7018 63.3488 15.5285 62.974 14.702 62.3729C13.6326 61.5957 13.9837 60.2282 14.321 59.1117C14.7928 57.5536 15.2813 55.9483 16.2358 54.6048C16.4597 54.2894 16.6793 54.0596 16.9424 53.9102Z" fill="#40496B"/>
<path d="M52.9635 106.148C52.3339 106.133 51.6311 106.121 51.1675 106.546C50.7832 106.898 50.6769 107.452 50.5921 107.966C50.4682 108.716 50.3513 109.519 50.6734 110.207C50.9453 110.788 51.5016 111.199 52.1036 111.423C52.7061 111.646 53.3568 111.702 53.9985 111.733C56.7085 111.862 59.4482 111.565 62.0343 110.749C62.7698 110.517 63.5098 110.233 64.0857 109.722C64.9115 108.99 65.3078 107.808 65.0891 106.728C64.9431 106.004 64.5242 105.345 63.9502 104.882C63.1461 104.234 62.8541 104.601 61.9942 104.874C60.1355 105.462 58.2091 105.847 56.2681 106.032C55.1704 106.136 54.0657 106.175 52.9635 106.148Z" fill="#40496B"/>
<path d="M82.3862 99.8514C81.5462 100.167 80.5953 100.519 80.2411 101.341C79.9277 102.069 80.206 102.911 80.5768 103.611C80.8531 104.132 81.2176 104.658 81.7718 104.866C82.359 105.086 83.013 104.899 83.6105 104.708C85.7359 104.03 87.8699 103.307 89.7763 102.15C90.5358 101.69 91.2634 101.155 91.8186 100.463C92.3738 99.7708 92.7471 98.9062 92.7256 98.0203C92.704 97.134 92.244 96.2391 91.4633 95.8158C90.3008 95.1857 89.2295 95.9442 88.3152 96.6224C87.1614 97.4774 85.9309 98.2305 84.6444 98.8696C83.9087 99.2345 83.1549 99.5627 82.3862 99.8514Z" fill="#40496B"/>
<path d="M16.4897 61.2753C16.6377 61.2753 16.773 61.1773 16.8128 61.0282C17.2968 59.2232 17.948 57.4514 18.7472 55.762C18.8262 55.5952 18.7543 55.3965 18.5871 55.3177C18.4205 55.2389 18.2213 55.3106 18.1423 55.4767C17.3252 57.2023 16.6605 59.0123 16.1666 60.8558C16.1189 61.0339 16.225 61.2171 16.4036 61.2646C16.4321 61.2724 16.4612 61.2753 16.4897 61.2753Z" fill="#F8F9B3"/>
<path d="M15.3832 60.144C15.5341 60.144 15.6706 60.043 15.7079 59.8904C16.1081 58.2795 16.6829 56.7073 17.4158 55.2168C17.4969 55.0512 17.4287 54.8513 17.2627 54.7703C17.0975 54.6894 16.897 54.7574 16.8151 54.923C16.0614 56.4558 15.4701 58.0731 15.0585 59.7298C15.0139 59.909 15.1238 60.0903 15.3027 60.134C15.33 60.1412 15.3573 60.144 15.3832 60.144Z" fill="#F8F9B3"/>
<path d="M91.6173 65.9798L92.2828 66.3027C92.2828 66.3027 91.1641 69.0153 91.9501 69.4349C92.7361 69.855 93.8045 67.5623 94.0311 66.6256C94.0311 66.6256 94.9376 71.5337 95.8441 71.5018C96.7506 71.4689 96.1679 68.2081 95.6175 67.1099C95.6175 67.1099 96.8801 70.9527 97.5924 71.017C98.3046 71.0817 97.9486 68.2081 96.7506 66.5932C96.7506 66.5932 98.3694 69.9192 98.9198 69.6611C99.4702 69.4025 98.6284 66.5289 96.783 65.5278C96.783 65.5278 98.9198 66.9161 99.7616 66.787C100.603 66.6579 99.0816 65.0435 97.301 64.591C95.5204 64.1391 94.0311 63.7636 94.0311 63.7636C94.0311 63.7636 92.4735 64.3653 91.6173 65.9798Z" fill="#F5A783"/>
<path d="M27.889 70.4034C27.889 70.4034 25.4282 70.1456 24.9105 70.4034C24.3921 70.6626 24.0685 74.1497 24.9105 74.2786C25.7517 74.4082 27.889 74.2786 27.889 74.2786V70.4034Z" fill="#F8C83D"/>
<path d="M28.2984 87.9915C28.2984 87.9915 25.9677 87.776 25.4494 88.3789C24.9318 88.9815 24.777 92.8574 26.5723 93.0286C28.3669 93.2001 29.3376 92.7275 29.3376 92.7275L28.2984 87.9915Z" fill="#F8C83D"/>
<path d="M69.0519 84.018C69.0969 84.018 69.1427 84.009 69.1864 83.99C69.3554 83.9156 69.4326 83.719 69.3579 83.55C68.9789 82.6891 68.5006 81.8707 67.9369 81.1172C67.8264 80.9691 67.6169 80.9391 67.4689 81.0489C67.3208 81.1591 67.2903 81.3685 67.4008 81.5161C67.934 82.2293 68.3864 83.0042 68.7455 83.8185C68.8008 83.9436 68.9233 84.018 69.0519 84.018Z" fill="#F8F9B3"/>
<path d="M65.6769 85.8733C65.7171 85.8733 65.7581 85.8658 65.7979 85.8499C65.97 85.7835 66.0554 85.5902 65.9884 85.4182C65.6271 84.4912 65.1352 83.6214 64.5269 82.833C64.4143 82.6869 64.2041 82.6598 64.058 82.7721C63.911 82.8848 63.8838 83.094 63.9964 83.2402C64.5662 83.978 65.0263 84.7922 65.365 85.6599C65.4161 85.7923 65.543 85.8733 65.6769 85.8733Z" fill="#F8F9B3"/>
<path d="M61.6575 87.5109C61.6973 87.5109 61.7375 87.5039 61.7773 87.4889C61.9497 87.4228 62.0363 87.2301 61.9696 87.0578C61.6169 86.1387 61.2111 85.2275 60.763 84.3494C60.6795 84.1854 60.4779 84.1197 60.3135 84.2035C60.1482 84.2872 60.0828 84.4878 60.1668 84.6522C60.6039 85.5092 61.0003 86.3987 61.3451 87.2967C61.3963 87.4294 61.5227 87.5109 61.6575 87.5109Z" fill="#F8F9B3"/>
<path d="M57.7418 89.0558C57.7764 89.0558 57.8113 89.0503 57.8458 89.0386C58.0216 88.9819 58.1168 88.7935 58.0594 88.6182C57.7078 87.5485 57.2849 86.4909 56.8013 85.4743C56.722 85.3078 56.5225 85.2371 56.3555 85.3157C56.1886 85.3947 56.1177 85.5933 56.197 85.7603C56.668 86.7518 57.0811 87.7834 57.4238 88.8256C57.47 88.9666 57.601 89.0558 57.7418 89.0558Z" fill="#F8F9B3"/>
<path d="M53.4614 90.1337C53.481 90.1337 53.5001 90.1322 53.5198 90.1288C53.7013 90.0974 53.8235 89.9247 53.7916 89.7426C53.6007 88.6488 53.2759 87.5789 52.8269 86.5629C52.7523 86.394 52.5545 86.3182 52.3857 86.3921C52.2164 86.4664 52.1399 86.6637 52.2145 86.832C52.6419 87.7986 52.9505 88.8166 53.1326 89.8576C53.161 90.0196 53.3024 90.1337 53.4614 90.1337Z" fill="#F8F9B3"/>
<path d="M48.7382 90.8616C48.7558 90.8616 48.7729 90.8605 48.7904 90.8574C48.9729 90.8291 49.0979 90.6585 49.0695 90.4771L48.5785 87.336C48.5501 87.1541 48.3796 87.0294 48.1966 87.0577C48.0142 87.0861 47.8892 87.2567 47.9176 87.4391L48.4085 90.5791C48.4338 90.7441 48.576 90.8616 48.7382 90.8616Z" fill="#F8F9B3"/>
<path d="M44.4835 91.4252C44.5019 91.4252 44.5209 91.4236 44.5393 91.4204C44.7215 91.3901 44.8445 91.2181 44.8142 91.0364C44.6418 90.0091 44.5149 88.9617 44.4369 87.9224C44.4228 87.7386 44.2623 87.6012 44.0774 87.6148C43.8936 87.6288 43.7554 87.7889 43.7689 87.9727C43.8492 89.0314 43.9787 90.0994 44.1544 91.1462C44.1815 91.3095 44.323 91.4252 44.4835 91.4252Z" fill="#F8F9B3"/>
<path d="M39.6989 91.2097C39.7074 91.2097 39.7154 91.2093 39.724 91.2089C39.9083 91.1949 40.0463 91.0349 40.0326 90.851L39.8136 87.9233C39.8004 87.7401 39.6396 87.6018 39.4553 87.616C39.271 87.6297 39.133 87.7896 39.1466 87.9734L39.3657 90.9008C39.3788 91.076 39.5255 91.2097 39.6989 91.2097Z" fill="#F8F9B3"/>
<path d="M35.5208 90.9503C35.5279 90.9503 35.5357 90.9503 35.5434 90.9494C35.7282 90.9371 35.8671 90.778 35.8546 90.5941L35.637 87.4083C35.6239 87.2244 35.4641 87.0854 35.2799 87.0982C35.0957 87.1105 34.9568 87.2696 34.9694 87.4535L35.1869 90.6393C35.1995 90.8153 35.3461 90.9503 35.5208 90.9503Z" fill="#F8F9B3"/>
<path d="M53.504 108.134C56.9368 108.134 60.3623 107.734 63.7038 106.943C63.8834 106.9 63.9943 106.72 63.9516 106.541C63.9089 106.362 63.7288 106.251 63.5492 106.293C59.926 107.151 56.2002 107.542 52.4783 107.454C52.2943 107.45 52.1407 107.596 52.1357 107.78C52.1318 107.964 52.2776 108.117 52.4626 108.122C52.8096 108.13 53.157 108.134 53.504 108.134Z" fill="#F8F9B3"/>
<path d="M55.5429 109.854C58.253 109.854 60.9559 109.547 63.5978 108.938C63.7779 108.897 63.8903 108.718 63.8485 108.538C63.8072 108.359 63.6276 108.247 63.4475 108.288C60.4215 108.985 57.3138 109.279 54.2109 109.161C54.0242 109.154 53.8705 109.298 53.8638 109.482C53.8566 109.666 54.0011 109.821 54.185 109.828C54.6378 109.845 55.0906 109.854 55.5429 109.854Z" fill="#F8F9B3"/>
<path d="M81.4819 102.065C81.5153 102.065 81.5491 102.06 81.5825 102.049C84.9734 100.986 88.1198 99.3484 90.9332 97.1814C91.0794 97.0687 91.1064 96.8593 90.9935 96.7133C90.8806 96.5673 90.6707 96.5406 90.5243 96.6533C87.7734 98.7718 84.6976 100.373 81.3817 101.413C81.2056 101.468 81.1075 101.655 81.1627 101.831C81.2077 101.973 81.3396 102.065 81.4819 102.065Z" fill="#F8F9B3"/>
<path d="M82.5664 103.555C82.5912 103.555 82.6163 103.553 82.6411 103.547C85.8349 102.821 88.8369 101.313 91.3218 99.1839C91.462 99.0642 91.478 98.8532 91.3577 98.7134C91.2374 98.574 91.0261 98.5579 90.8859 98.6776C88.4831 100.736 85.5808 102.195 82.4926 102.896C82.3124 102.937 82.1998 103.116 82.2407 103.296C82.2761 103.45 82.4139 103.555 82.5664 103.555Z" fill="#F8F9B3"/>
<path d="M86.0423 115.493C86.0423 115.493 88.3198 110.099 92.5312 110.638C95.3777 111.002 95.4792 114.181 95.6144 114.914L86.0423 115.493Z" fill="#B0E4D9"/>
<path d="M62.7685 119.202C62.7685 119.202 63.2439 115.256 59.5948 114.281C54.2021 112.842 52.4027 121.448 52.4027 121.448L62.7685 119.202Z" fill="#B0E4D9"/>
<path d="M86.8353 114.281C86.8353 114.281 90.0274 110.552 93.6104 112.403C97.1932 114.254 95.6824 119.55 93.8262 121.53C91.97 123.511 89.5816 124.932 86.4159 123.468C83.2501 122.004 85.1973 116.246 86.8353 114.281Z" fill="#40496B"/>
<path d="M53.9089 118.211C53.9089 118.211 57.1012 114.481 60.6839 116.332C64.2665 118.184 62.756 123.479 60.8991 125.46C59.0433 127.44 56.655 128.861 53.4889 127.397C50.3237 125.934 52.2704 120.176 53.9089 118.211Z" fill="#40496B"/>
<path d="M61.1268 121.592C61.1926 121.592 61.2584 121.572 61.3165 121.532C61.4689 121.428 61.5065 121.22 61.4022 121.069L58.8434 117.374C58.7386 117.222 58.5304 117.184 58.378 117.288C58.2265 117.393 58.188 117.601 58.2932 117.753L60.8515 121.448C60.9164 121.541 61.0207 121.592 61.1268 121.592Z" fill="#F8F9B3"/>
<path d="M60.0444 123.131C60.1099 123.131 60.1763 123.111 60.2344 123.071C60.3861 122.966 60.424 122.758 60.3188 122.607L57.6032 118.7C57.4981 118.548 57.2891 118.51 57.1374 118.615C56.9857 118.72 56.9478 118.928 57.0535 119.08L59.769 122.987C59.8341 123.081 59.9378 123.131 60.0444 123.131Z" fill="#F8F9B3"/>
<path d="M58.6542 124.613C58.7238 124.613 58.7939 124.591 58.8541 124.546C59.0023 124.436 59.0324 124.227 58.9218 124.079L56.0986 120.314C55.9881 120.167 55.7783 120.136 55.6306 120.247C55.4824 120.357 55.4523 120.567 55.5628 120.714L58.3861 124.479C58.4519 124.566 58.5526 124.613 58.6542 124.613Z" fill="#F8F9B3"/>
<path d="M57.2652 125.78C57.3495 125.78 57.4338 125.749 57.4991 125.685C57.6311 125.556 57.6335 125.345 57.5039 125.213C56.6578 124.354 55.8536 123.437 55.1133 122.486C54.9999 122.34 54.7894 122.314 54.6436 122.427C54.4978 122.54 54.4716 122.75 54.585 122.895C55.3415 123.866 56.1628 124.803 57.0261 125.681C57.0918 125.747 57.1785 125.78 57.2652 125.78Z" fill="#F8F9B3"/>
<path d="M55.4082 126.815C55.4814 126.815 55.5556 126.791 55.6172 126.742C55.7613 126.627 55.7844 126.416 55.6688 126.273C55.149 125.627 54.6798 124.933 54.2756 124.21C54.1855 124.049 53.9813 123.991 53.8204 124.081C53.659 124.17 53.6012 124.374 53.6912 124.534C54.1137 125.29 54.6037 126.016 55.1466 126.69C55.2131 126.773 55.3099 126.815 55.4082 126.815Z" fill="#F8F9B3"/>
<path d="M94.5248 117.64C94.5886 117.64 94.6532 117.622 94.7104 117.584C94.8639 117.481 94.9052 117.274 94.8025 117.121L92.1409 113.15C92.0382 112.997 91.8304 112.955 91.6768 113.058C91.5233 113.16 91.482 113.368 91.5847 113.521L94.2463 117.492C94.3108 117.588 94.4168 117.64 94.5248 117.64Z" fill="#F8F9B3"/>
<path d="M92.9154 119.241C92.9757 119.241 93.0367 119.224 93.0917 119.19C93.2486 119.093 93.2968 118.887 93.1992 118.731C92.2728 117.244 91.404 115.697 90.6171 114.132C90.5342 113.967 90.3334 113.901 90.168 113.983C90.0031 114.066 89.9363 114.267 90.0192 114.431C90.815 116.014 91.6938 117.579 92.631 119.083C92.6943 119.185 92.8036 119.241 92.9154 119.241Z" fill="#F8F9B3"/>
<path d="M91.5133 120.501C91.5709 120.501 91.6292 120.486 91.6825 120.455C91.8418 120.362 91.895 120.157 91.8014 119.999L89.3181 115.785C89.2245 115.626 89.0196 115.573 88.8604 115.666C88.7012 115.76 88.648 115.964 88.7416 116.123L91.2246 120.337C91.2869 120.442 91.3986 120.501 91.5133 120.501Z" fill="#F8F9B3"/>
<path d="M89.7408 122.242C89.8006 122.242 89.8612 122.226 89.9156 122.193C90.0732 122.096 90.1222 121.891 90.0257 121.734L87.6856 117.934C87.5891 117.777 87.3829 117.728 87.2254 117.824C87.0678 117.921 87.0188 118.127 87.1157 118.283L89.4554 122.083C89.5185 122.186 89.6286 122.242 89.7408 122.242Z" fill="#F8F9B3"/>
<path d="M30.6735 58.8526C32.8309 60.2651 36.2303 62.0301 46.3586 61.341C56.487 60.6525 62.6826 57.4661 61.5918 53.5912C56.7768 56.8232 50.9442 58.7144 44.6589 58.7144C39.221 58.7144 34.1212 57.2987 29.7264 54.8237C29.7264 54.8237 28.5149 57.4407 30.6735 58.8526Z" fill="#40496B"/>
<path d="M31.4737 59.0762C31.5933 59.0762 31.7086 59.0125 31.7688 58.9C32.158 58.173 32.4754 57.4052 32.7122 56.6157C32.7655 56.4389 32.6644 56.2528 32.4878 56.2003C32.3105 56.1471 32.1239 56.2479 32.0712 56.4241C31.8469 57.1708 31.5469 57.8979 31.1787 58.5853C31.0919 58.7485 31.1533 58.9501 31.3169 59.0372C31.3665 59.0638 31.4204 59.0762 31.4737 59.0762Z" fill="#F8F9B3"/>
<path d="M34.6791 60.1762C34.8267 60.1762 34.9629 60.0775 35.0025 59.9278L35.5918 57.7013C35.6392 57.5235 35.5324 57.3404 35.3536 57.2937C35.1747 57.2464 34.9917 57.3529 34.9449 57.5313L34.355 59.7572C34.3082 59.9356 34.4144 60.1181 34.5932 60.1648C34.622 60.1726 34.6502 60.1762 34.6791 60.1762Z" fill="#F8F9B3"/>
<path d="M38.3628 60.567C38.54 60.567 38.6884 60.427 38.6965 60.2479L38.7941 58.1168C38.8027 57.9326 38.6601 57.7771 38.4754 57.7685C38.2906 57.7598 38.1342 57.9026 38.1261 58.0869L38.0279 60.2174C38.0199 60.4017 38.1625 60.5577 38.3472 60.5664C38.3524 60.5664 38.3576 60.567 38.3628 60.567Z" fill="#F8F9B3"/>
<path d="M43.2184 61.1808C43.2256 61.1808 43.2327 61.1803 43.2398 61.1798C43.424 61.1683 43.5644 61.0097 43.5529 60.826L43.4372 58.9848C43.4257 58.8005 43.2667 58.6611 43.0825 58.6726C42.8977 58.684 42.7579 58.8426 42.7694 59.0263L42.8851 60.8675C42.8961 61.0447 43.043 61.1808 43.2184 61.1808Z" fill="#F8F9B3"/>
<path d="M48.8644 60.7281C48.8839 60.7281 48.9034 60.7265 48.9234 60.7227C49.1051 60.6914 49.2267 60.5183 49.1943 60.3365C49.071 59.6359 48.9904 59.2988 48.7822 58.6176C48.7281 58.4412 48.5416 58.342 48.3647 58.3959C48.1879 58.4493 48.0884 58.6354 48.1419 58.8123C48.3431 59.4692 48.4167 59.7756 48.5356 60.4525C48.5643 60.6137 48.7054 60.7281 48.8644 60.7281Z" fill="#F8F9B3"/>
<path d="M53.4819 60.0108C53.5234 60.0108 53.5661 60.0032 53.6077 59.9863C53.7789 59.917 53.8609 59.7222 53.7915 59.5515L52.9924 57.5909C52.9223 57.4201 52.7276 57.3378 52.5564 57.407C52.3852 57.4769 52.3027 57.6711 52.3721 57.8418L53.1718 59.8024C53.2243 59.9322 53.3495 60.0108 53.4819 60.0108Z" fill="#F8F9B3"/>
<path d="M57.0614 58.8859C57.1085 58.8859 57.1566 58.8754 57.2021 58.8549C57.3693 58.777 57.4419 58.5782 57.3643 58.4113C57.0497 57.7374 56.7008 57.0695 56.3275 56.4265C56.235 56.2668 56.0301 56.2121 55.8705 56.3049C55.7105 56.3966 55.6556 56.601 55.7487 56.7601C56.112 57.3866 56.451 58.0368 56.7578 58.6931C56.8143 58.8146 56.9351 58.8859 57.0614 58.8859Z" fill="#F8F9B3"/>
<path d="M59.7462 56.9167C59.8018 56.9167 59.858 56.9027 59.9098 56.8741C60.0706 56.7838 60.1279 56.5809 60.038 56.4199L59.2812 55.0707C59.1907 54.9098 58.9866 54.8526 58.8258 54.9429C58.6644 55.0326 58.6071 55.2361 58.697 55.3965L59.4544 56.7457C59.5151 56.8551 59.6292 56.9167 59.7462 56.9167Z" fill="#F8F9B3"/>
<path d="M44.6589 0.66761C60.9696 0.66761 74.2391 13.6127 74.2391 29.5243C74.2391 45.4358 60.9696 58.381 44.6589 58.381C28.3485 58.381 15.0788 45.4358 15.0788 29.5243C15.0788 13.6127 28.3485 0.66761 44.6589 0.66761ZM44.6589 59.0485C48.7417 59.0485 52.7025 58.2683 56.4311 56.7293C60.0331 55.2422 63.2678 53.1148 66.0458 50.4041C68.8244 47.6925 71.0058 44.5349 72.5299 41.0194C74.1081 37.3782 74.9084 33.5109 74.9084 29.5243C74.9084 25.5376 74.1081 21.6703 72.5299 18.0292C71.0058 14.5136 68.8244 11.3561 66.0458 8.64447C63.2678 5.93377 60.0331 3.80631 56.4311 2.31951C52.7025 0.780663 48.7417 2.67029e-05 44.6589 2.67029e-05C40.5764 2.67029e-05 36.6153 0.780663 32.8872 2.31951C29.285 3.80631 26.0499 5.93377 23.2727 8.64447C20.4937 11.3561 18.3121 14.5136 16.7881 18.0292C15.2101 21.6703 14.4094 25.5376 14.4094 29.5243C14.4094 33.5109 15.2101 37.3782 16.7881 41.0194C18.3121 44.5349 20.4937 47.6925 23.2727 50.4041C26.0499 53.1148 29.285 55.2422 32.8872 56.7293C36.6153 58.2683 40.5764 59.0485 44.6589 59.0485Z" fill="#3C3942"/>
<path d="M28.6012 27.9676C28.6012 27.9676 26.903 31.8015 26.8135 35.7646C26.8135 35.7646 25.5576 33.528 25.6551 29.5243L28.6012 27.9676Z" fill="#5A353E"/>
<path d="M61.0084 28.3617C61.0084 28.3617 61.3132 31.1355 60.4971 34.8182L59.3681 27.8095L61.0084 28.3617Z" fill="#5A353E"/>
<path d="M59.7653 30.8661C59.7967 30.8661 59.8285 30.8661 59.8602 30.8653L59.7954 30.4645L59.5662 29.0413C58.7229 28.3906 57.7736 27.7414 56.8978 27.3288C56.9361 27.3634 58.3707 28.6625 58.9505 29.7179C59.0507 29.9002 59.1254 30.0747 59.1629 30.2342C59.1629 30.2342 58.6919 30.1926 57.9307 30.0425C55.7031 29.6032 50.9875 28.2389 48.2848 24.293C48.3037 24.3378 49.5936 27.4051 51.5225 29.0075C51.5225 29.0075 48.4763 28.3049 45.8524 25.5826C44.2694 23.9401 42.8401 21.5604 42.3279 18.1584C42.3232 18.1804 42.2121 18.7564 41.9064 19.6515C41.0712 22.1019 38.783 26.9485 33.2634 29.3949C33.2634 29.3949 33.2634 29.3949 33.2634 29.3941C33.2626 29.3949 33.2634 29.3941 33.2626 29.3949C33.2626 29.3949 33.2626 28.1037 34.3626 26.1673C34.3027 26.2357 32.0633 28.7489 27.8722 29.9545C27.8628 29.9843 27.8526 30.015 27.8431 30.0448C27.8226 30.1109 27.8021 30.1777 27.7808 30.246C27.758 30.3223 27.7344 30.4001 27.7115 30.4786C29.5033 30.4669 31.288 29.8586 32.7063 28.7646C32.3785 29.2314 32.0507 29.6991 31.7229 30.1659C34.2302 30.0166 36.6815 29.0373 38.5986 27.4176C40.5149 25.7979 41.8875 23.5487 42.4477 21.1062C42.9733 23.3137 44.3277 25.2816 46.0762 26.7331C47.8262 28.1839 49.9545 29.1379 52.1607 29.6912C52.0449 29.3179 51.9283 28.9438 51.8109 28.5705C54.1736 30.0645 56.9682 30.8661 59.7653 30.8661Z" fill="#F18762"/>
<path d="M33.2629 29.3952C33.2629 29.3944 33.2621 29.3952 33.2629 29.3944C33.2629 29.3669 33.2755 28.082 34.3636 26.166C34.3636 26.166 34.3636 26.166 34.3629 26.1675C33.2629 28.104 33.2629 29.3952 33.2629 29.3952ZM59.5661 29.0415L59.5657 29.0407C58.722 28.3908 57.7736 27.7401 56.8968 27.3283C56.8968 27.3283 56.8973 27.3283 56.8977 27.3283C57.7736 27.7417 58.7228 28.3908 59.5661 29.0415ZM51.5229 29.0077C49.5939 27.4045 48.3033 24.338 48.2852 24.2932C48.2852 24.2932 49.579 27.3912 51.5205 29.0062C51.4464 28.9897 48.4427 28.2698 45.8528 25.5828C48.4758 28.3044 51.5229 29.0077 51.5229 29.0077ZM41.9067 19.651C42.2124 18.7558 42.3235 18.1806 42.3275 18.1585C42.3275 18.1578 42.3275 18.1586 42.3275 18.1578C42.3275 18.1578 42.2179 18.7385 41.9067 19.651Z" fill="#582B2E"/>
</svg>
