<svg width="78" height="124" viewBox="0 0 78 124" fill="none" xmlns="http://www.w3.org/2000/svg">
<path d="M24.4916 47.9279C23.909 46.3967 25.6679 44.6315 24.9483 43.1591C24.5801 42.4054 23.6755 42.0441 23.2555 41.3175C22.7566 40.4548 23.0762 39.378 23.1184 38.3824C23.1925 36.61 22.3429 34.9514 21.8241 33.2554C21.0805 30.8233 21.0104 28.2447 20.945 25.7027C20.9139 24.4636 20.9123 23.1241 21.6424 22.1229C22.3907 21.0979 23.8277 20.5471 24.129 19.3151C24.4294 18.0887 23.5017 16.5042 24.4581 15.6788C25.2184 15.0223 26.543 15.5531 27.3097 14.9045C28.0119 14.3108 27.8668 13.0231 28.6654 12.567C29.511 12.0839 30.4754 12.9785 31.4397 13.1194C32.4463 13.2666 33.3557 12.5734 34.1917 11.994C35.0277 11.4146 36.1363 10.9077 37.0197 11.4122C37.581 11.733 37.884 12.3896 38.4395 12.7206C39.3287 13.2507 40.4797 12.7604 41.2967 12.1253C42.114 11.4902 42.8797 10.6785 43.8998 10.4986C46.1171 10.1086 47.7095 12.8344 49.9354 13.1727C50.837 13.3096 51.7468 13.035 52.6586 13.0008C53.5702 12.9666 54.6265 13.2921 54.9458 14.1452C55.2919 15.0692 54.6055 16.1444 54.9547 17.0676C55.4314 18.3267 57.2863 18.2606 58.2971 19.1512C59.1937 19.9415 59.2419 21.3231 59.008 22.4946C58.7741 23.6653 58.3262 24.832 58.4765 26.0163C58.7034 27.8014 60.2627 29.3931 59.875 31.1504C59.5137 32.7851 57.5873 33.752 57.322 35.4051C57.061 37.0302 58.5173 38.7723 57.7326 40.22C57.0936 41.3979 55.2733 41.6343 54.825 42.8973C54.3379 44.2701 55.868 45.7783 55.3451 47.1384C54.9093 48.2709 53.2541 48.653 53.0077 49.8412C52.7626 51.0222 54.1203 52.1778 53.6961 53.3079C53.4704 53.9088 52.8221 54.224 52.225 54.4627C47.7577 56.2502 42.8902 57.0015 38.0895 56.7214C35.6884 56.5813 33.3031 56.1826 30.9894 55.5268C29.0432 54.9745 28.4422 54.5073 28.0366 52.5909C27.8158 51.5499 27.5281 50.6195 26.7032 49.8977C25.962 49.249 24.8694 48.9219 24.4916 47.9279Z" fill="#3C130D"/>
<path d="M38.4536 51.3593L43.3963 50.9625L43.2206 48.249L43.1007 46.3828H38.6678L38.5645 48.7868L38.4536 51.3593Z" fill="#894222"/>
<path d="M40.3617 48.868C41.4306 48.868 42.4784 48.7397 43.2202 48.2482L43.1328 46.8906C41.9679 47.0685 40.7888 47.1477 39.6302 47.1477C39.2967 47.1477 38.9644 47.1409 38.6349 47.1289L38.5641 48.7865C39.1352 48.8258 39.7518 48.868 40.3617 48.868Z" fill="#74381D"/>
<path d="M55.1618 30.9751C55.1618 30.9751 56.3544 29.2188 58.1883 30.1703C60.0226 31.1217 58.3293 35.5158 54.8654 34.9668L55.1618 30.9751Z" fill="#894222"/>
<path d="M55.2135 33.9101C56.9817 33.9101 57.8573 32.2449 57.2101 31.5149C57.0497 31.3337 56.8469 31.2631 56.6286 31.2631C56.1924 31.2631 55.6932 31.5448 55.3373 31.7933C55.2674 32.4647 55.1762 33.1754 55.0568 33.9061C55.1097 33.9088 55.1622 33.9101 55.2135 33.9101Z" fill="#74381D"/>
<path d="M23.0924 31.2067C23.0924 31.2067 21.5028 29.2618 20.1578 30.5581C18.8128 31.8538 20.6469 36.2007 24.4986 35.2178L23.0924 31.2067Z" fill="#894222"/>
<path d="M23.3527 34.1983C23.1665 33.4965 22.997 32.786 22.8454 32.0748C22.5887 31.8351 22.233 31.6014 21.8194 31.6014C21.6983 31.6014 21.5713 31.6213 21.4417 31.6678C20.5094 31.9985 21.2209 33.9553 23.3527 34.1983Z" fill="#74381D"/>
<path d="M55.5432 26.8139C55.5432 26.8139 56.0937 40.0028 49.9486 44.3071C43.8038 48.6114 34.3569 47.2373 30.0465 45.3143C25.7362 43.3913 22.985 34.965 22.1596 27.9135C22.1596 27.9135 31.3433 13.4428 38.8575 15.4573C46.3719 17.4726 54.8095 23.7922 55.5432 26.8139Z" fill="#894222"/>
<path d="M70.3452 40.4628C70.3452 40.4628 69.7749 38.8506 68.7661 38.0084C67.7572 37.1655 67.4822 36.8911 67.8182 36.2497C68.1546 35.6083 70.9978 37.8063 70.9978 37.8063C70.9978 37.8063 71.1812 35.8528 70.9978 34.4182C70.8145 32.9829 71.0588 32.4064 71.4562 32.4508C71.8536 32.4945 72.6181 36.1278 72.465 37.1655C72.465 37.1655 73.0462 31.8233 74.0854 32.0061C75.1249 32.1897 74.0854 37.1045 74.0854 37.1045C74.0854 37.1045 75.7297 33.4613 76.528 33.619C77.3259 33.7767 75.3389 37.6538 75.3389 37.6538C75.3389 37.6538 77.1123 35.206 77.8764 35.6368C78.6406 36.0668 75.6446 40.0963 74.8192 40.4628C74.8192 40.4628 74.5383 40.7994 74.2691 41.5177C74.2691 41.5177 71.9853 41.7755 70.3452 40.4628Z" fill="#894222"/>
<path d="M10.3747 45.0424C10.3747 45.0424 10.9945 43.3736 11.8569 42.5997C12.7186 41.8265 13.1671 40.6865 12.5557 40.4837C11.9444 40.2795 10.1096 41.7857 9.66178 42.5589C9.66178 42.5589 9.17241 40.2394 9.09061 39.181C9.00952 38.1227 8.92772 37.1453 8.27546 37.1861C7.62319 37.227 7.90596 40.8499 7.98846 41.9892C7.98846 41.9892 6.68604 37.3875 5.6262 37.1847C4.56565 36.9827 6.40046 42.3962 6.40046 42.3962C6.40046 42.3962 4.23987 38.8149 3.46562 38.9775C2.69136 39.1402 5.05573 43.0067 5.05573 43.0067C5.05573 43.0067 3.05804 40.7619 2.40577 41.1104C1.75351 41.4604 3.43036 44.0841 5.5444 45.4086C6.64514 46.2226 6.64515 46.8739 6.64515 46.8739C6.64515 46.8739 8.64213 47.1584 10.3747 45.0424Z" fill="#894222"/>
<path d="M60.4327 60.5364C60.4327 60.5364 65.3113 74.3493 64.6692 86.4385C63.8444 92.5746 53.9669 92.6666 53.9669 92.6666L55.0105 61.3902L60.4327 60.5364Z" fill="#F8C83D"/>
<path d="M56.9018 64.5194C56.9018 64.5194 68.5829 57.0434 74.2693 41.5184C74.2693 41.5184 72.3522 41.8068 70.3454 40.4631C70.3454 40.4631 63.1961 50.3179 54.7917 52.9314L51.478 55.5443L56.9018 64.5194Z" fill="#73D0C9"/>
<path d="M54.2553 53.4644C54.2553 53.4644 57.4046 51.968 59.9363 56.7785C62.4686 61.5885 56.8437 65.1835 56.8437 65.1835L53.0807 54.1948L54.2553 53.4644Z" fill="#3C3942"/>
<path d="M53.9667 56.2781C53.998 56.2781 54.0299 56.2734 54.0612 56.2635C55.3276 55.867 56.6415 55.6232 57.9664 55.5398C58.1407 55.5288 58.2727 55.3793 58.2617 55.2053C58.2508 55.0312 58.1005 54.8994 57.9267 54.9103C56.5512 54.9968 55.1872 55.2495 53.8723 55.6617C53.7053 55.7138 53.6129 55.8905 53.6651 56.0567C53.7074 56.1916 53.8321 56.2781 53.9667 56.2781Z" fill="#F8F9B3"/>
<path d="M55.011 58.8312C55.0155 58.8312 55.02 58.8307 55.0246 58.8307C56.1942 58.7798 57.3648 58.6211 58.5052 58.3565C58.6747 58.3172 58.7807 58.1479 58.7413 57.9786C58.702 57.8083 58.5324 57.703 58.3624 57.7423C57.2599 57.9973 56.1281 58.1515 54.9973 58.2003C54.8233 58.2079 54.688 58.355 54.6951 58.5294C54.7027 58.6987 54.8424 58.8312 55.011 58.8312Z" fill="#F8F9B3"/>
<path d="M59.412 61.4073C59.5799 61.4073 59.7197 61.2756 59.7274 61.1065C59.7352 60.9324 59.6009 60.7846 59.4261 60.7769L55.7572 60.6072C55.5814 60.599 55.4349 60.7336 55.4271 60.9076C55.4189 61.0821 55.5537 61.2294 55.7275 61.2377L59.3969 61.4069C59.4023 61.4074 59.4066 61.4073 59.412 61.4073Z" fill="#F8F9B3"/>
<path d="M63.472 49.0185C63.082 48.301 62.7499 47.4013 63.1737 46.7034C63.5827 46.0308 64.5508 45.8896 65.2838 46.1789C66.0169 46.4688 66.5689 47.0768 67.0925 47.6647C67.6119 48.248 68.1316 48.8312 68.6289 49.4335C69.1879 50.1107 69.7349 50.8484 69.8841 51.7135C70.0336 52.5781 69.6572 53.5947 68.8332 53.9002C68.289 54.1019 67.664 53.9573 67.1678 53.6558C66.4034 53.1919 65.9031 52.438 65.3425 51.766C64.6312 50.913 64.0022 49.9943 63.472 49.0185Z" fill="#3C3942"/>
<path d="M68.5734 51.4131C68.6476 51.4131 68.7218 51.3868 68.782 51.3344C68.9129 51.2191 68.9254 51.0195 68.8104 50.8888L65.3732 46.9926C65.2583 46.862 65.0586 46.8494 64.9277 46.9641C64.7967 47.0793 64.7839 47.279 64.8993 47.4096L68.336 51.3058C68.3986 51.3766 68.4856 51.4131 68.5734 51.4131Z" fill="#F8F9B3"/>
<path d="M67.7855 52.6044C67.8524 52.6044 67.92 52.5835 67.9771 52.5395C68.1158 52.4341 68.1422 52.2363 68.0365 52.0976C66.955 50.6839 65.7667 49.3304 64.505 48.0751C64.3814 47.9522 64.1814 47.9528 64.0582 48.0762C63.9351 48.1991 63.9355 48.3992 64.059 48.5221C65.3006 49.7577 66.4698 51.0892 67.5342 52.4809C67.5964 52.5621 67.6904 52.6044 67.7855 52.6044Z" fill="#F8F9B3"/>
<path d="M28.8997 55.3397C28.8997 55.3397 17.6504 53.0407 10.3744 45.0421C10.3744 45.0421 8.72371 46.8739 6.64494 46.8739C6.64494 46.8739 17.2609 64.3361 29.348 66.0458C29.348 66.0458 33.3623 57.0892 28.8997 55.3397Z" fill="#73D0C9"/>
<path d="M28.1059 54.4911C28.1059 54.4911 24.1925 55.9714 23.5813 60.245C22.9701 64.5191 25.538 66.7642 28.1059 67.0765L30.6738 56.3153L28.1059 54.4911Z" fill="#3C3942"/>
<path d="M29.9399 58.6169C30.1064 58.6169 30.2453 58.4878 30.2549 58.3193C30.265 58.1457 30.1323 57.9963 29.9579 57.9868C28.4382 57.8997 26.91 57.7115 25.415 57.4268C25.2434 57.3942 25.078 57.5065 25.0454 57.6773C25.0128 57.8486 25.1253 58.0137 25.2963 58.0463C26.8188 58.3361 28.3746 58.5276 29.9219 58.6164C29.9281 58.6164 29.9337 58.6169 29.9399 58.6169Z" fill="#F8F9B3"/>
<path d="M29.3903 60.8519C29.5616 60.8519 29.7023 60.7154 29.7063 60.5438C29.7103 60.3694 29.5719 60.2255 29.3977 60.221L24.5657 60.1082C24.391 60.1043 24.2463 60.2419 24.2424 60.4164C24.2384 60.5903 24.3762 60.7347 24.5509 60.7386L29.383 60.8519H29.3903Z" fill="#F8F9B3"/>
<path d="M25.7296 64.1812C25.7733 64.1812 25.8176 64.1722 25.8596 64.1532C26.8563 63.7022 27.9018 63.352 28.9691 63.1126C29.1394 63.074 29.2458 62.905 29.2078 62.7355C29.1697 62.5654 29.0004 62.4585 28.8301 62.4966C27.7214 62.7461 26.6345 63.1103 25.5991 63.578C25.4405 63.6502 25.3699 63.8376 25.4416 63.996C25.4949 64.1123 25.6097 64.1812 25.7296 64.1812Z" fill="#F8F9B3"/>
<path d="M16.2385 50.309C16.7256 49.8931 17.2949 49.6025 17.9234 49.7316C18.8035 49.9115 19.3116 50.915 19.2505 51.8103C19.19 52.7057 18.7105 53.5114 18.2431 54.2783C17.647 55.2582 17.0504 56.2375 16.4543 57.2167C16.1595 57.7013 15.8067 58.2291 15.2527 58.3531C14.8636 58.4402 14.4529 58.2997 14.1281 58.0688C13.6601 57.7369 13.1901 57.052 13.0538 56.4874C12.8953 55.8317 13.3149 54.9364 13.5493 54.3329C13.9664 53.2627 14.5471 52.2548 15.2667 51.3588C15.5348 51.0244 15.8621 50.6295 16.2385 50.309Z" fill="#3C3942"/>
<path d="M63.7522 68.3251C63.7522 68.3251 67.5024 68.0589 68.318 73.9518C69.133 79.8446 66.8095 81.3102 66.8095 81.3102V83.0604C66.8095 83.0604 69.7851 82.3685 70.4376 78.1755C71.0897 73.9831 70.1929 69.8418 67.8693 67.8825C65.5458 65.9237 63.0184 66.4528 63.0184 66.4528L63.7522 68.3251Z" fill="#40496B"/>
<path d="M30.5119 37.4869C31.2083 37.9454 31.6175 38.5517 31.4271 38.8403C31.2361 39.1283 30.517 38.99 29.8213 38.5309C29.125 38.0717 28.7151 37.4654 28.9061 37.1768C29.0971 36.8888 29.8162 37.0271 30.5119 37.4869Z" fill="#E28364"/>
<path d="M47.8172 37.4869C47.1209 37.9454 46.7111 38.5517 46.9021 38.8403C47.0931 39.1283 47.8122 38.99 48.5079 38.5309C49.2036 38.0717 49.6134 37.4654 49.4224 37.1768C49.2321 36.8888 48.513 37.0271 47.8172 37.4869Z" fill="#E28364"/>
<path d="M12.252 23.2843C12.252 23.2843 9.47188 22.2047 8.49411 23.0136C7.51561 23.8226 8.06556 29.8462 9.22762 30.0707C10.389 30.2944 11.942 30.0707 11.942 30.0707L12.252 23.2843Z" fill="#F8C83D"/>
<path d="M8.5545 25.6541C8.5545 25.6541 5.8031 24.677 5.0086 25.6541C4.21339 26.6311 8.92168 27.3638 8.92168 27.3638L8.5545 25.6541Z" fill="#F8C83D"/>
<path d="M67.858 22.7449C67.858 22.7449 71.0022 21.8911 72.4286 22.7449C73.8555 23.5987 72.3878 29.582 71.6953 29.7853C71.0022 29.9894 68.3136 29.3729 68.3136 29.3729L67.858 22.7449Z" fill="#F8C83D"/>
<path d="M72.4695 25.5522C72.4695 25.5522 75.7714 25.4301 76.4641 26.5292C77.1571 27.6283 71.9804 27.2619 71.9804 27.2619L72.4695 25.5522Z" fill="#F8C83D"/>
<path d="M47.8404 54.4626L47.3195 50.6667L34.3977 51.0743V54.9473C34.3977 54.9473 38.7829 56.7936 47.8404 54.4626Z" fill="#BD40A7"/>
<path d="M43.3953 52.9309C43.3953 53.4618 43.8266 53.8925 44.3583 53.8925C44.89 53.8925 45.3213 53.4618 45.3213 52.9309C45.3213 52.3999 44.89 51.9692 44.3583 51.9692C43.8266 51.9692 43.3953 52.3999 43.3953 52.9309Z" fill="white"/>
<path d="M39.7833 53.1544C39.7833 53.685 40.2146 54.1157 40.7466 54.1157C41.2785 54.1157 41.7093 53.685 41.7093 53.1544C41.7093 52.6231 41.2785 52.1924 40.7466 52.1924C40.2146 52.1924 39.7833 52.6231 39.7833 53.1544Z" fill="white"/>
<path d="M36.1715 53.1544C36.1715 53.685 36.6028 54.1157 37.1347 54.1157C37.6662 54.1157 38.0975 53.685 38.0975 53.1544C38.0975 52.6231 37.6662 52.1924 37.1347 52.1924C36.6028 52.1924 36.1715 52.6231 36.1715 53.1544Z" fill="white"/>
<path d="M30.0862 31.7515C30.1952 31.7515 30.2935 31.6762 30.317 31.5653C30.346 31.4376 30.2645 31.312 30.1367 31.2837C29.4664 31.1366 28.8371 30.8241 28.3156 30.3778C28.2167 30.2932 28.0666 30.3046 27.9818 30.404C27.897 30.5028 27.9078 30.6527 28.0074 30.7374C28.5881 31.234 29.2887 31.5821 30.035 31.7461C30.0525 31.7501 30.0694 31.7515 30.0862 31.7515Z" fill="#74381D"/>
<path d="M29.4498 32.5802C29.4724 32.5802 29.4943 32.5802 29.5162 32.5802C29.6471 32.5775 29.7514 32.4701 29.7494 32.3394C29.7474 32.2087 29.6364 32.1046 29.5082 32.1066C28.9483 32.1159 28.3837 31.9985 27.8742 31.7683C27.7546 31.7146 27.6145 31.7676 27.5607 31.887C27.5069 32.0058 27.5593 32.1457 27.6789 32.2001C28.2316 32.4495 28.8427 32.5802 29.4498 32.5802Z" fill="#74381D"/>
<path d="M47.9965 31.2117C48.0113 31.2117 48.0262 31.2103 48.0417 31.2069C48.7019 31.0821 49.3265 30.7508 49.8012 30.2751C49.8933 30.1833 49.8933 30.0335 49.8004 29.9411C49.708 29.8487 49.5576 29.8493 49.4656 29.9411C49.058 30.35 48.5201 30.6348 47.9532 30.7427C47.8242 30.767 47.7397 30.8905 47.7647 31.0187C47.7856 31.1327 47.885 31.2117 47.9965 31.2117Z" fill="#74381D"/>
<path d="M49.3163 31.9937C49.6988 31.9937 50.0821 31.9517 50.4523 31.8692C50.5797 31.8399 50.6601 31.7135 50.6309 31.5858C50.6022 31.4587 50.4756 31.3782 50.3478 31.4075C49.7547 31.5405 49.1244 31.5572 48.5247 31.454C48.3955 31.4314 48.2729 31.5179 48.2509 31.6463C48.2289 31.7754 48.3148 31.8978 48.4441 31.9198C48.7306 31.969 49.0238 31.9937 49.3163 31.9937Z" fill="#74381D"/>
<path d="M39.4999 37.3168C39.9136 37.3168 40.326 37.1547 40.6192 36.8529C41.0593 36.3992 41.1759 35.685 40.9034 35.1155C40.8467 34.9977 40.7049 34.9476 40.587 35.0042C40.469 35.0602 40.4194 35.2017 40.4755 35.3195C40.6617 35.7081 40.5786 36.2146 40.2783 36.5234C39.978 36.8323 39.4741 36.9307 39.0798 36.757C38.6854 36.5833 38.418 36.1451 38.4438 35.7152C38.4521 35.5846 38.3522 35.4726 38.2221 35.4649C38.0913 35.4572 37.9791 35.5563 37.9708 35.6863C37.9328 36.3169 38.3097 36.9353 38.8884 37.1901C39.0823 37.2756 39.2911 37.3168 39.4999 37.3168Z" fill="#74381D"/>
<path d="M38.2905 42.443C38.6892 42.443 39.0892 42.2987 39.3825 42.0271C39.4788 41.9389 39.4843 41.7891 39.3953 41.6929C39.3063 41.5973 39.1563 41.5912 39.0606 41.6801C38.7411 41.9748 38.2417 42.0564 37.8454 41.8767C37.4491 41.6977 37.1802 41.2691 37.1918 40.835C37.1954 40.7047 37.0918 40.5957 36.9607 40.5927C36.8278 40.589 36.7217 40.6919 36.718 40.8228C36.7015 41.4414 37.0851 42.0527 37.6503 42.3078C37.8509 42.3992 38.0704 42.443 38.2905 42.443Z" fill="#74381D"/>
<path d="M57.0205 30.1033C56.1888 30.6222 55.1225 30.7496 54.192 30.44C53.2613 30.1296 52.4844 29.3899 52.1313 28.4764C51.8477 27.7437 51.7471 26.8132 51.0459 26.458C50.6764 26.2712 50.255 26.3121 49.8315 26.3538C49.4423 26.3908 49.0507 26.4295 48.6964 26.2897C47.7645 25.9214 47.66 24.6304 46.9678 23.9069C46.0754 22.9733 44.4486 23.2011 43.4614 22.3687C42.7886 21.8012 42.5649 20.8708 42.063 20.148C41.4577 19.2755 40.4128 18.7234 39.3493 18.7157C39.8107 18.9713 40.2819 19.2338 40.6303 19.6292C40.9784 20.0245 41.1863 20.5851 41.0262 21.087C40.8921 21.5078 40.5192 21.8475 40.494 22.2877C40.4606 22.866 41.0219 23.2837 41.2798 23.8018C41.7176 24.6821 41.0533 25.9005 40.076 26.0117C40.555 25.8403 40.576 25.1469 40.3433 24.6952C40.1105 24.2435 39.7155 23.8605 39.6281 23.3602C39.5162 22.7193 39.942 22.1132 40.0348 21.4692C40.1673 20.5503 39.508 19.5851 38.6023 19.3728C38.7647 20.0299 38.825 20.7727 38.9866 21.4298C38.4485 21.6684 38.1036 22.2807 38.1786 22.8637C38.2482 23.4096 38.6418 23.9354 38.4809 24.4613C38.351 24.8859 37.9049 25.1253 37.4819 25.2604C37.059 25.3948 36.5989 25.4797 36.2633 25.7693C36.1141 25.3245 36.4813 24.8103 36.8571 24.5284C37.2322 24.2474 37.6729 23.9146 37.6652 23.4459C37.6567 22.9594 37.1502 22.5826 37.1595 22.0962C37.1649 21.8259 37.3311 21.5873 37.5005 21.3757C37.6706 21.1642 37.8569 20.9495 37.9149 20.6855C37.9722 20.4206 37.8422 20.0924 37.5762 20.0384C37.4951 20.4639 36.9809 20.6847 36.5803 20.8515C36.1798 21.0183 35.7305 21.1989 35.5558 21.595C35.3756 22.0027 35.5612 22.4676 35.7081 22.8884C35.855 23.3084 35.9432 23.8327 35.6316 24.1516C35.1831 24.6103 34.2598 24.2759 33.8647 24.7817C33.9753 24.4335 34.2745 24.198 34.5637 23.9748C34.8537 23.7524 35.1444 23.4451 35.1135 23.0814C35.0655 22.5255 34.2939 22.1788 34.3797 21.6275C34.4601 21.1101 35.2558 20.897 35.2473 20.3743C34.8405 19.8539 33.8431 20.087 33.3915 20.5689C32.9399 21.0507 32.7953 21.7333 32.6337 22.3734C32.4713 23.0127 32.2417 23.693 31.6989 24.069C30.771 24.7122 29.4194 24.1624 28.408 24.6643C27.245 25.2411 27.1058 26.8441 26.2746 27.8402C25.6769 28.5575 24.7637 28.9096 23.941 29.3528C23.119 29.7952 22.2932 30.4539 22.1602 31.3774C21.3066 30.3821 21.5037 28.8741 21.9228 27.6325C22.8399 24.9191 24.5534 22.5533 26.3249 20.3009C27.6873 18.5675 29.1379 16.8402 31.0269 15.7012C33.158 14.4164 35.7336 13.9739 38.2134 14.184C40.6944 14.394 43.0897 15.2264 45.3168 16.3367C48.5966 17.9721 51.5521 20.2144 54.1657 22.7811C55.1792 23.7756 56.1573 24.8411 56.782 26.116C57.4066 27.3908 57.5262 28.7768 57.0205 30.1033Z" fill="#3C130D"/>
<path d="M28.3964 21.1808C28.4884 21.1808 28.5758 21.1269 28.6139 21.0373C28.8876 20.401 29.4769 19.9112 30.1536 19.7586C30.3468 19.7153 30.546 19.6971 30.7574 19.6781C30.9391 19.6614 31.1269 19.6447 31.314 19.6105C31.6896 19.5407 32.193 19.3638 32.4591 18.9173C32.653 18.5923 32.6598 18.2347 32.6659 17.8884C32.6697 17.6363 32.6743 17.3972 32.7518 17.1921C32.8765 16.8641 33.2225 16.6075 33.6141 16.5528C33.6749 16.5445 33.7365 16.5399 33.7989 16.5399C34.116 16.5399 34.449 16.6485 34.7554 16.855C34.7957 16.8823 34.8421 16.8953 34.8877 16.8953C34.9638 16.8953 35.0391 16.858 35.0839 16.7905C35.1577 16.6819 35.1288 16.5353 35.02 16.4624C34.6353 16.2035 34.2095 16.0669 33.7981 16.0669C33.7145 16.0669 33.6308 16.0722 33.5487 16.0843C32.9822 16.1633 32.4956 16.5323 32.3093 17.0251C32.2021 17.3068 32.1968 17.5984 32.1914 17.8801C32.1861 18.1777 32.1815 18.4587 32.0515 18.6758C31.8675 18.9856 31.4561 19.1026 31.2273 19.1451C31.0615 19.1755 30.8935 19.1906 30.714 19.2066C30.4973 19.2263 30.273 19.2468 30.0494 19.2969C29.2275 19.4822 28.5104 20.0775 28.1781 20.8505C28.1272 20.9705 28.1827 21.1094 28.3029 21.161C28.3333 21.174 28.3652 21.1808 28.3964 21.1808Z" fill="#612820"/>
<path d="M23.4916 24.2806C23.4961 24.2806 23.4998 24.2806 23.5043 24.2806C23.7943 23.795 24.1037 23.3192 24.4251 22.8508C23.9494 23.0775 23.3815 23.3955 23.2593 23.997C23.2331 24.125 23.3163 24.2499 23.4444 24.2761C23.4601 24.2791 23.4759 24.2806 23.4916 24.2806ZM25.3811 21.5251C25.4845 21.3874 25.5894 21.2497 25.6936 21.1128C25.6733 21.0784 25.6524 21.0447 25.6321 21.0118C25.552 20.8816 25.4763 20.7589 25.4276 20.634C25.2725 20.233 25.4209 19.7182 25.7655 19.4616C25.8996 19.3621 26.0607 19.2933 26.2315 19.2192C26.3469 19.1698 26.4668 19.1182 26.5837 19.0546C27.0025 18.8272 27.2475 18.4748 27.2377 18.1127C27.2347 17.984 27.1291 17.8822 27.001 17.8822C26.9995 17.8822 26.9972 17.8822 26.995 17.8822C26.8646 17.8852 26.7612 17.9945 26.7642 18.1246C26.7695 18.3379 26.5574 18.5301 26.3574 18.6386C26.26 18.6925 26.1551 18.7374 26.0442 18.7845C25.8554 18.8661 25.6606 18.9499 25.4823 19.0823C24.9668 19.4661 24.7533 20.2068 24.9863 20.8046C25.05 20.9699 25.1406 21.1173 25.2283 21.2595C25.2837 21.35 25.3377 21.4375 25.3811 21.5251Z" fill="#612820"/>
<path d="M23.5039 24.2803C23.6097 24.2744 23.7016 24.1987 23.7235 24.0916C23.8052 23.6903 24.2486 23.4543 24.7774 23.2081C25.5732 22.8381 25.9678 22.3749 25.9495 21.8308C25.9408 21.5562 25.819 21.3217 25.6935 21.1127C25.5892 21.2496 25.4849 21.3865 25.3814 21.5249C25.4353 21.632 25.4725 21.7391 25.4762 21.8468C25.49 22.2656 24.9948 22.5854 24.5768 22.7791C24.528 22.8024 24.4776 22.8258 24.4251 22.8505C24.1035 23.3188 23.7942 23.7945 23.5039 24.2803Z" fill="#612820"/>
<path d="M49.6407 22.5013C49.6527 22.5013 49.6648 22.5005 49.6772 22.499C49.8066 22.4786 49.8951 22.3582 49.8749 22.2287C49.8105 21.8121 49.7374 21.3403 49.5323 20.9185C49.2892 20.4172 48.8898 20.0704 48.4365 19.9666C48.3036 19.9363 48.1723 19.9272 48.0433 19.9272C47.9513 19.9272 47.86 19.9318 47.7702 19.9363C47.6859 19.9401 47.6032 19.9446 47.5232 19.9446C47.4039 19.9446 47.2905 19.9356 47.1856 19.9037C46.7703 19.7773 46.5668 19.3229 46.4984 19.1336C46.4102 18.889 46.3644 18.63 46.3162 18.3551C46.2902 18.2074 46.2634 18.0552 46.2292 17.9045C46.0986 17.3267 45.8741 16.9192 45.5431 16.6587C45.3341 16.4952 45.0506 16.3944 44.7701 16.3944C44.5055 16.3944 44.2434 16.4838 44.0487 16.6928C43.9594 16.7882 43.9648 16.9382 44.0608 17.0268C44.1062 17.0692 44.1641 17.0904 44.222 17.0904C44.2853 17.0904 44.3486 17.0654 44.3957 17.0147C44.4908 16.9124 44.6287 16.8685 44.7728 16.8685C44.943 16.8685 45.1216 16.9298 45.2503 17.0306C45.4923 17.2214 45.6612 17.541 45.7673 18.009C45.7988 18.1483 45.8232 18.2884 45.8497 18.4369C45.899 18.7193 45.9507 19.0109 46.0528 19.2941C46.2482 19.8364 46.6111 20.2233 47.0477 20.3559C47.2074 20.4043 47.3658 20.418 47.5216 20.418C47.6133 20.418 47.7042 20.4134 47.7939 20.4089C47.879 20.4043 47.9621 20.4005 48.0426 20.4005C48.1431 20.4005 48.2395 20.4066 48.33 20.4278C48.6384 20.4982 48.9283 20.7587 49.1062 21.1253C49.2798 21.4827 49.3443 21.8992 49.4069 22.3014C49.4251 22.418 49.5257 22.5013 49.6407 22.5013Z" fill="#612820"/>
<path d="M54.8376 22.4319C54.9491 22.4319 55.0482 22.3536 55.0699 22.2398C55.2386 21.3707 54.6274 20.4361 53.7628 20.2403C53.614 20.2071 53.4656 20.1936 53.3219 20.1808C53.0977 20.1612 52.8864 20.1424 52.722 20.0475C52.4948 19.9157 52.3413 19.6265 52.2664 19.1882C52.2505 19.094 52.2376 18.9991 52.2244 18.9042C52.1809 18.5834 52.1358 18.2528 51.9785 17.944C51.707 17.4115 51.1309 17.0741 50.54 17.0741C50.4472 17.0741 50.3543 17.0824 50.2619 17.0997C50.1333 17.1238 50.0486 17.2474 50.0723 17.3754C50.0937 17.4891 50.1935 17.5689 50.305 17.5689C50.3193 17.5689 50.3341 17.5674 50.3489 17.5652C50.4111 17.5531 50.474 17.5479 50.5373 17.5479C50.9518 17.5479 51.3674 17.7889 51.5563 18.1586C51.677 18.3959 51.7151 18.6738 51.7552 18.9675C51.7687 19.0684 51.7823 19.1686 51.7994 19.2672C51.8989 19.8509 52.1293 20.2508 52.4843 20.4564C52.7395 20.6048 53.0145 20.6289 53.2803 20.6522C53.4139 20.6643 53.5402 20.6756 53.6578 20.7019C54.2732 20.8413 54.7246 21.5319 54.605 22.1502C54.5801 22.279 54.664 22.4025 54.7926 22.4274C54.8078 22.4304 54.8228 22.4319 54.8376 22.4319Z" fill="#612820"/>
<path d="M53.7184 53.9405C53.7184 53.9405 62.0098 71.9679 57.3323 88.2702C52.6548 104.572 38.6223 113.273 23.3059 117.486C23.3059 117.486 21.7474 123.622 19.8215 123.622C17.8949 123.622 17.2532 113.09 17.2532 113.09C17.2532 113.09 32.8028 111.258 37.1346 97.6121C37.1346 97.6121 32.2022 97.1539 28.0753 93.7654C28.0753 93.7654 15.786 99.9016 1.9368 95.1391C1.9368 95.1391 1.11142 87.1712 1.9368 86.9881C2.76218 86.805 5.33051 87.9955 6.33883 91.384C6.33883 91.384 17.7382 91.0178 20.9347 85.3395C22.1586 83.8743 22.1586 83.8743 22.1586 83.8743C22.1586 83.8743 24.7277 73.9828 25.8516 71.6932C26.9748 69.4037 29.3481 61.437 29.5864 55.7879C29.5864 55.7879 41.8501 58.8093 53.7184 53.9405Z" fill="#73D0C9"/>
<path d="M48.3135 56.1541C48.3135 56.1541 52.8088 69.2205 51.0806 75.0822C49.3534 80.9439 36.3297 78.8368 33.945 77.463C31.5607 76.0898 32.5269 69.4041 33.0064 67.3888C33.4869 65.3741 34.3978 57.3553 34.3978 57.3553L48.3135 56.1541Z" fill="#BD40A7"/>
<path d="M14.076 55.6815C14.1884 55.6815 14.2977 55.621 14.3546 55.515C15.0874 54.1504 15.9593 52.852 16.9436 51.6553C17.0548 51.5209 17.0352 51.3222 16.9 51.2118C16.7648 51.1007 16.5664 51.1203 16.4552 51.2553C15.4444 52.483 14.5504 53.816 13.7974 55.2166C13.7153 55.3705 13.7734 55.5617 13.9269 55.6437C13.9743 55.6695 14.0254 55.6815 14.076 55.6815Z" fill="#F8F9B3"/>
<path d="M15.5663 56.5893C15.6753 56.5893 15.7805 56.5333 15.8396 56.4326L18.1576 52.4821C18.2461 52.3316 18.1956 52.1382 18.045 52.0499C17.8943 51.9623 17.7006 52.0126 17.6122 52.1625L15.2942 56.1143C15.2058 56.2647 15.2562 56.4575 15.4069 56.5458C15.4573 56.575 15.5121 56.5893 15.5663 56.5893Z" fill="#F8F9B3"/>
<path d="M61.4287 66.0458C61.4287 66.0458 63.2222 65.5164 63.8335 66.0458C64.4449 66.5747 64.812 69.6276 64.486 69.9121C64.16 70.1975 62.3666 70.3603 62.3666 70.3603L61.4287 66.0458Z" fill="#F8C83D"/>
<path d="M64.0785 80.6179C64.0785 80.6179 66.3204 79.8443 66.9726 80.6179C67.6249 81.3914 67.3393 84.3221 66.7279 84.4443C66.1168 84.5661 64.0785 84.4443 64.0785 84.4443V80.6179Z" fill="#F8C83D"/>
<path d="M65.2502 68.8648C65.3775 68.8648 65.4977 68.7873 65.5457 68.6615C65.7183 68.2093 65.9515 67.7821 66.238 67.3921C66.3416 67.2515 66.3111 67.0545 66.1708 66.9511C66.03 66.8481 65.8322 66.8785 65.7291 67.0187C65.4085 67.4543 65.148 67.9317 64.9556 68.4372C64.8933 68.5997 64.9749 68.782 65.1381 68.8438C65.1749 68.8581 65.213 68.8648 65.2502 68.8648Z" fill="#F8F9B3"/>
<path d="M67.2865 70.7494C67.3568 70.7494 67.4275 70.7264 67.486 70.6788C67.8916 70.3492 68.3426 70.0824 68.8267 69.8857C68.988 69.8199 69.0657 69.6358 69.0002 69.4747C68.9343 69.3132 68.7499 69.2356 68.5886 69.301C68.0464 69.5215 67.5415 69.8208 67.0874 70.1889C66.9517 70.2989 66.9317 70.4977 67.0415 70.6329C67.1039 70.7095 67.195 70.7494 67.2865 70.7494Z" fill="#F8F9B3"/>
<path d="M68.2462 74.238C68.2735 74.238 68.3004 74.2343 68.3282 74.227C68.8739 74.0812 69.4524 74.0763 70.0006 74.2123C70.1699 74.2547 70.3412 74.1512 70.3836 73.9822C70.4256 73.8135 70.3224 73.642 70.1532 73.6001C69.5013 73.438 68.8136 73.4441 68.1646 73.6176C67.9961 73.6624 67.8962 73.8355 67.9411 74.0038C67.979 74.1447 68.1067 74.238 68.2462 74.238Z" fill="#F8F9B3"/>
<path d="M69.9891 79.0607C70.1056 79.0607 70.2179 78.9959 70.2726 78.8842C70.3496 78.7275 70.2851 78.5386 70.1285 78.4618C69.5672 78.1871 68.9682 78.0087 68.3482 77.9319C68.1745 77.9102 68.0172 78.0331 67.9955 78.2058C67.9741 78.3788 68.0968 78.5363 68.2701 78.558C68.8206 78.6263 69.352 78.7845 69.85 79.0285C69.8947 79.0503 69.9424 79.0607 69.9891 79.0607Z" fill="#F8F9B3"/>
<path d="M27.283 90.2637C24.538 89.2071 21.6619 87.7578 20.4027 85.1025C20.0758 84.412 19.9719 83.405 20.649 83.0496C21.1878 82.7669 21.828 83.1156 22.3407 83.443C32.0324 89.6295 43.8822 91.6254 55.3844 91.5707C55.9398 91.5679 56.5106 91.5637 57.028 91.7658C57.5444 91.9683 58.0005 92.4315 58.0172 92.9854C58.0335 93.5211 57.6334 94.001 57.1514 94.2372C56.6702 94.4738 56.1184 94.5146 55.5825 94.539C48.211 94.8758 40.4477 94.1639 33.326 92.2371C31.2794 91.6835 29.2613 91.0253 27.283 90.2637Z" fill="#3C3942"/>
<path d="M54.4877 94.7327C54.4912 94.7327 54.4947 94.7327 54.4982 94.7323C54.6726 94.7268 54.8094 94.581 54.8035 94.4068L54.7204 91.883C54.7146 91.7088 54.5693 91.5723 54.3945 91.5781C54.2201 91.5839 54.0833 91.7298 54.0891 91.904L54.1723 94.4274C54.1777 94.5981 54.3179 94.7327 54.4877 94.7327Z" fill="#F8F9B3"/>
<path d="M50.0769 94.7336C50.242 94.7336 50.3808 94.6056 50.3923 94.4395L50.5813 91.6298C50.5932 91.4559 50.4613 91.3054 50.2872 91.2939C50.1135 91.2821 49.9623 91.4137 49.9508 91.5876L49.7615 94.3973C49.75 94.5708 49.8818 94.7209 50.0556 94.7332C50.063 94.7336 50.0699 94.7336 50.0769 94.7336Z" fill="#F8F9B3"/>
<path d="M45.903 94.4071C46.0501 94.4071 46.1819 94.3047 46.212 94.1548C46.4058 93.2043 46.4743 92.2321 46.4154 91.2637C46.4045 91.0898 46.2543 90.9574 46.0802 90.9682C45.9065 90.9787 45.7738 91.1282 45.7843 91.3021C45.8402 92.2151 45.7756 93.1324 45.5932 94.0293C45.5583 94.1997 45.6687 94.3661 45.8393 94.401C45.8607 94.4054 45.8821 94.4071 45.903 94.4071Z" fill="#F8F9B3"/>
<path d="M41.6493 94.1254C41.8051 94.1254 41.9406 94.0106 41.9619 93.8523L42.3689 90.8401C42.392 90.667 42.2704 90.5086 42.0979 90.485C41.9245 90.4619 41.7658 90.5829 41.7427 90.7556L41.3357 93.7681C41.3126 93.9408 41.4338 94.0994 41.6067 94.1227C41.6211 94.1246 41.6354 94.1254 41.6493 94.1254Z" fill="#F8F9B3"/>
<path d="M38.0637 93.4275C38.2056 93.4275 38.3345 93.3313 38.3704 93.1877C38.6151 92.1966 38.7619 91.1774 38.8074 90.1575C38.8152 89.9833 38.68 89.8362 38.5056 89.8284C38.3306 89.8207 38.1838 89.9557 38.1761 90.1294C38.133 91.1077 37.992 92.0857 37.757 93.0365C37.7148 93.2056 37.818 93.3767 37.9876 93.4182C38.0133 93.4244 38.0385 93.4275 38.0637 93.4275Z" fill="#F8F9B3"/>
<path d="M34.5789 92.7025C34.7019 92.7025 34.8182 92.6307 34.8698 92.5108C35.3212 91.4573 35.643 90.349 35.8251 89.2175C35.8529 89.0457 35.7355 88.884 35.5635 88.8557C35.392 88.8284 35.2291 88.9451 35.2012 89.1174C35.0272 90.1981 34.7201 91.2563 34.289 92.2629C34.2202 92.4228 34.2946 92.6082 34.4549 92.6768C34.4954 92.6943 34.5374 92.7025 34.5789 92.7025Z" fill="#F8F9B3"/>
<path d="M30.9929 91.5459C31.1169 91.5459 31.2347 91.4722 31.2848 91.3508L32.5261 88.3463C32.5931 88.185 32.516 88.0007 32.355 87.9344C32.1935 87.8676 32.0087 87.9445 31.9421 88.1054L30.7009 91.1099C30.6344 91.2708 30.7109 91.4555 30.8725 91.5219C30.9115 91.5381 30.9527 91.5459 30.9929 91.5459Z" fill="#F8F9B3"/>
<path d="M27.876 90.7002C27.9996 90.7002 28.1167 90.6273 28.1676 90.5062C28.5921 89.4903 29.0834 88.4898 29.6278 87.5324C29.7137 87.3811 29.6606 87.1887 29.5085 87.1026C29.357 87.0165 29.1644 87.0697 29.078 87.2213C28.5216 88.2004 28.0188 89.2238 27.585 90.263C27.5171 90.4236 27.5932 90.6086 27.7546 90.6757C27.7939 90.6921 27.8355 90.7002 27.876 90.7002Z" fill="#F8F9B3"/>
<path d="M24.9453 88.9511C25.0527 88.9511 25.1572 88.8968 25.2165 88.7983L26.8734 86.0464C26.9632 85.897 26.9146 85.7031 26.7654 85.6135C26.6157 85.5235 26.4213 85.5719 26.3315 85.7213L24.6746 88.4732C24.5848 88.6225 24.6334 88.8165 24.7831 88.9061C24.834 88.9368 24.8899 88.9511 24.9453 88.9511Z" fill="#F8F9B3"/>
<path d="M22.0524 87.0797C22.1649 87.0797 22.2739 87.0192 22.331 86.9129C22.7571 86.1181 23.3114 85.4074 23.9787 84.8003C24.1075 84.6831 24.1168 84.4834 23.9991 84.3546C23.8819 84.2258 23.682 84.2169 23.5526 84.334C22.8328 84.9896 22.2337 85.7569 21.7738 86.6154C21.6917 86.769 21.7494 86.9598 21.9032 87.0421C21.951 87.0677 22.0023 87.0797 22.0524 87.0797Z" fill="#F8F9B3"/>
<path d="M16.3663 89.9245C16.0636 89.2949 15.5926 88.7208 14.9571 88.4291C14.3222 88.137 13.5101 88.1777 12.9853 88.6398C12.5623 89.0121 12.3786 89.5991 12.3779 90.1619C12.3767 90.7248 12.5373 91.2745 12.7056 91.8121C13.185 93.3444 13.7424 94.8565 14.4649 96.2906C14.719 96.7941 14.9993 97.2965 15.4146 97.6786C15.8294 98.0603 16.4028 98.3086 16.9583 98.2108C17.7384 98.0735 18.2721 97.2845 18.3605 96.4985C18.4481 95.7122 18.1858 94.9322 17.8946 94.1967C17.3442 92.806 17.012 91.269 16.3663 89.9245Z" fill="#3C3942"/>
<path d="M36.4844 108.577C37.0088 109.128 37.513 109.715 37.8355 110.404C38.158 111.094 38.2833 111.903 38.0315 112.622C37.7797 113.34 37.0994 113.928 36.337 113.935C35.5345 113.943 34.8628 113.357 34.296 112.79C33.0943 111.588 31.9747 110.309 30.8556 109.031C30.4908 108.614 30.1216 108.191 29.8666 107.699C29.3711 106.742 29.5983 104.694 31.0833 104.869C32.3551 105.019 33.7865 106.173 34.7444 106.953C35.3599 107.454 35.9379 108.001 36.4844 108.577Z" fill="#3C3942"/>
<path d="M16.7427 95.6315C16.7764 95.6315 16.8107 95.626 16.8445 95.6148C17.0099 95.5589 17.0985 95.3797 17.0417 95.2148C16.488 93.5825 16.0017 91.9055 15.5979 90.2305C15.5573 90.0614 15.3863 89.957 15.2171 89.9977C15.0473 90.0384 14.943 90.2092 14.9836 90.3783C15.3919 92.0716 15.8838 93.7671 16.4437 95.4173C16.4886 95.5488 16.611 95.6315 16.7427 95.6315Z" fill="#F8F9B3"/>
<path d="M15.3079 95.8385C15.3445 95.8385 15.3818 95.8319 15.4178 95.8184C15.5814 95.7578 15.6648 95.5763 15.6042 95.413C15.083 94.0134 14.6692 92.5617 14.3754 91.0978C14.3413 90.9271 14.1746 90.8162 14.0034 90.8507C13.8328 90.8848 13.7216 91.0508 13.7564 91.2219C14.0564 92.7181 14.479 94.2023 15.0116 95.6329C15.059 95.7598 15.1796 95.8385 15.3079 95.8385Z" fill="#F8F9B3"/>
<path d="M36.9434 111.24C37.0421 111.24 37.1402 111.194 37.2015 111.107C37.3023 110.964 37.2685 110.768 37.1257 110.667C35.4991 109.52 33.9837 108.203 32.6226 106.751C32.5031 106.625 32.3032 106.618 32.1754 106.737C32.0487 106.856 32.0419 107.056 32.1614 107.183C33.5522 108.665 35.0998 110.011 36.7616 111.182C36.8167 111.221 36.88 111.24 36.9434 111.24Z" fill="#F8F9B3"/>
<path d="M35.2319 112.301C35.3214 112.301 35.4104 112.263 35.473 112.191C35.5857 112.058 35.5699 111.859 35.4378 111.746C33.9892 110.512 32.6528 109.134 31.4659 107.649C31.3569 107.513 31.1578 107.491 31.022 107.599C30.8856 107.708 30.863 107.906 30.972 108.043C32.1846 109.559 33.549 110.966 35.027 112.226C35.0865 112.276 35.1597 112.301 35.2319 112.301Z" fill="#F8F9B3"/>
<path d="M3.39123 90.5936C3.43795 90.5936 3.48606 90.5831 3.53139 90.5606C4.14922 90.2542 4.80678 90.0339 5.48528 89.9062C5.65612 89.874 5.76979 89.7091 5.73701 89.5376C5.70494 89.3666 5.53967 89.2537 5.36813 89.2863C4.63315 89.4244 3.92049 89.6633 3.24967 89.9954C3.09347 90.073 3.03001 90.2623 3.10741 90.4182C3.1632 90.5292 3.27477 90.5936 3.39123 90.5936Z" fill="#3C3942"/>
<path d="M2.44878 89.24C2.51557 89.24 2.58376 89.2187 2.64071 89.1748C3.10264 88.8215 3.67705 88.6066 4.2585 88.5701C4.43286 88.5592 4.56504 88.4095 4.55379 88.2357C4.54324 88.0615 4.39489 87.9296 4.21912 87.9405C3.51394 87.9847 2.81719 88.245 2.25614 88.674C2.11833 88.78 2.09161 88.9782 2.19778 89.1163C2.25965 89.1974 2.35386 89.24 2.44878 89.24Z" fill="#3C3942"/>
<path d="M22.9281 119.307C22.9792 119.307 23.0315 119.295 23.0797 119.268C23.2324 119.185 23.2888 118.993 23.2048 118.84C22.8253 118.148 22.1022 117.656 21.3174 117.556C21.1441 117.534 20.9867 117.656 20.9643 117.829C20.9426 118.002 21.0648 118.16 21.2381 118.182C21.8249 118.256 22.3665 118.625 22.6508 119.143C22.7084 119.248 22.8165 119.307 22.9281 119.307Z" fill="#3C3942"/>
<path d="M22.0725 121.056C22.1304 121.056 22.189 121.04 22.2422 121.006C22.3894 120.913 22.4326 120.718 22.3391 120.571C21.9625 119.979 21.4338 119.496 20.8105 119.174C20.6556 119.094 20.4646 119.154 20.3848 119.309C20.3043 119.463 20.3647 119.654 20.5202 119.734C21.0441 120.005 21.4894 120.412 21.8058 120.909C21.8661 121.004 21.9684 121.056 22.0725 121.056Z" fill="#3C3942"/>
<path d="M1.93681 95.1393C1.93681 95.1393 0.530731 94.9053 0.245503 94.3355C-0.0397255 93.7656 -0.121424 87.171 0.245503 86.7641C0.612429 86.3572 1.93681 86.9883 1.93681 86.9883V95.1393Z" fill="#3C3942"/>
<path d="M17.2532 113.09C17.2532 113.09 16.0204 113.222 15.8164 113.752C15.613 114.281 16.6728 123.398 17.8956 123.846C19.1185 124.294 19.8218 123.622 19.8218 123.622L17.2532 113.09Z" fill="#3C3942"/>
<path d="M39.9949 66.8518C40.119 67.8901 39.3769 68.8321 38.3377 68.956C37.2985 69.0804 36.3552 68.3393 36.2306 67.3011C36.1065 66.2633 36.8486 65.3214 37.8878 65.1969C38.9275 65.0735 39.8708 65.8146 39.9949 66.8518Z" fill="white"/>
<path d="M47.326 66.6743C47.4503 67.7124 46.7081 68.6539 45.6686 68.778C44.629 68.9022 43.6861 68.1615 43.5618 67.1234C43.438 66.0853 44.1797 65.1433 45.2188 65.0192C46.2583 64.8955 47.2017 65.6366 47.326 66.6743Z" fill="white"/>
<path d="M35.6212 72.4294L35.2966 74.6006C35.2966 74.6006 40.9264 76.2177 47.969 75.0519L47.8896 72.9774C47.8896 72.9774 41.4143 73.5105 35.6212 72.4294Z" fill="#F8C83D"/>
<path d="M25.8518 51.7447C25.9203 55.3337 31.2248 58.3523 39.7834 58.0473C48.342 57.7424 52.2576 55.9103 54.6418 54.115C57.0271 52.3213 56.0942 50.6667 56.0942 50.6667C51.5487 53.722 46.0403 55.5102 40.1044 55.5102C34.9064 55.5102 30.0361 54.1383 25.8518 51.7447Z" fill="#3C3942"/>
<path d="M54.7923 53.7795C54.8416 53.7795 54.8914 53.7682 54.938 53.7433C55.0928 53.6628 55.1529 53.4724 55.0717 53.3178C54.7777 52.7582 54.3954 52.2542 53.9352 51.8206C53.808 51.7011 53.6082 51.7071 53.4885 51.8336C53.3688 51.9607 53.3748 52.1602 53.5015 52.2797C53.9108 52.6652 54.2509 53.1129 54.5119 53.6103C54.5682 53.7184 54.6786 53.7795 54.7923 53.7795Z" fill="#F8F9B3"/>
<path d="M51.8734 55.4424C51.9151 55.4424 51.9568 55.4344 51.9973 55.4173C52.1576 55.3491 52.2329 55.164 52.1645 55.0035L51.372 53.139C51.3036 52.9785 51.1183 52.9038 50.9575 52.9715C50.7968 53.0398 50.722 53.2249 50.7904 53.3854L51.5829 55.2504C51.6342 55.3704 51.7511 55.4424 51.8734 55.4424Z" fill="#F8F9B3"/>
<path d="M48.313 56.4702L48.3209 56.4696C48.4952 56.4659 48.6332 56.3214 48.6295 56.1468C48.6147 55.5353 48.4889 54.9375 48.2562 54.3713C48.1898 54.2104 48.005 54.1336 47.8434 54.1994C47.6823 54.2661 47.6054 54.4507 47.6717 54.6116C47.8755 55.1058 47.985 55.6273 47.9977 56.1615C48.0013 56.3335 48.1424 56.4702 48.313 56.4702Z" fill="#F8F9B3"/>
<path d="M44.2443 57.6077C44.2604 57.6077 44.276 57.6061 44.2927 57.6035C44.4652 57.5775 44.5835 57.4167 44.557 57.2444L44.2599 55.2922C44.2333 55.1199 44.0728 55.0018 43.8998 55.0278C43.7272 55.0544 43.6089 55.2152 43.635 55.3875L43.9326 57.3391C43.9566 57.4952 44.091 57.6077 44.2443 57.6077Z" fill="#F8F9B3"/>
<path d="M40.0493 57.7729C40.2237 57.7729 40.365 57.6316 40.365 57.4577L40.3661 55.7886C40.3661 55.6147 40.2248 55.4734 40.0509 55.4729C39.8764 55.4729 39.7352 55.6142 39.7346 55.7881L39.7341 57.4572C39.7341 57.6311 39.8754 57.7729 40.0493 57.7729Z" fill="#F8F9B3"/>
<path d="M36.1524 57.6492C36.2916 57.6492 36.4189 57.5569 36.4573 57.4163C36.6141 56.8406 36.718 56.2468 36.7673 55.6525C36.7814 55.4787 36.6521 55.3262 36.4781 55.3122C36.3046 55.2977 36.1519 55.4268 36.1374 55.6001C36.0917 56.1571 35.994 56.712 35.8476 57.2514C35.8019 57.4194 35.9011 57.5926 36.0693 57.6383C36.0974 57.6455 36.1249 57.6492 36.1524 57.6492Z" fill="#F8F9B3"/>
<path d="M32.3359 56.8412C32.4629 56.8412 32.5826 56.7636 32.6314 56.6384L33.3019 54.8951C33.3649 54.7327 33.2831 54.5503 33.1204 54.488C32.9577 54.4251 32.7746 54.5063 32.7122 54.6693L32.041 56.4126C31.9786 56.575 32.0605 56.7574 32.2231 56.8197C32.2604 56.8339 32.2987 56.8412 32.3359 56.8412Z" fill="#F8F9B3"/>
<path d="M29.1091 55.3113C29.2235 55.3113 29.3336 55.2494 29.3902 55.1411C29.6249 54.6864 29.7954 54.2015 29.8963 53.6993C29.9303 53.5285 29.8197 53.3621 29.6487 53.3281C29.4776 53.2942 29.3115 53.4046 29.2764 53.5754C29.1879 54.0194 29.0368 54.4488 28.8286 54.8512C28.7487 55.0059 28.8092 55.1966 28.9645 55.2763C29.0104 55.3006 29.06 55.3113 29.1091 55.3113Z" fill="#F8F9B3"/>
<path d="M40.1044 0.630447C55.5063 0.630447 68.0366 12.8698 68.0366 27.9127C68.0366 42.9564 55.5063 55.1952 40.1044 55.1952C24.7028 55.1952 12.1721 42.9564 12.1721 27.9127C12.1721 12.8698 24.7028 0.630447 40.1044 0.630447ZM40.1044 55.8259C43.9595 55.8259 47.6996 55.0885 51.2207 53.6335C54.6221 52.2283 57.6766 50.2158 60.2999 47.6533C62.9236 45.0899 64.9837 42.1045 66.4225 38.7803C67.9131 35.3384 68.6686 31.6822 68.6686 27.9127C68.6686 24.144 67.9131 20.4877 66.4225 17.0459C64.9837 13.7217 62.9236 10.7362 60.2999 8.1729C57.6766 5.61043 54.6221 3.59784 51.2207 2.19264C47.6996 0.737679 43.9595 -9.15527e-05 40.1044 -9.15527e-05C36.2496 -9.15527e-05 32.5094 0.737679 28.9888 2.19264C25.5868 3.59784 22.5327 5.61043 19.9091 8.1729C17.2854 10.7362 15.2253 13.7217 13.7863 17.0459C12.2958 20.4877 11.5407 24.144 11.5407 27.9127C11.5407 31.6822 12.2958 35.3384 13.7863 38.7803C15.2253 42.1045 17.2854 45.0899 19.9091 47.6533C22.5327 50.2158 25.5868 52.2283 28.9888 53.6335C32.5094 55.0885 36.2496 55.8259 40.1044 55.8259Z" fill="#3C3942"/>
<path d="M29.4605 33.2573C29.4605 34.7579 30.6785 35.9742 32.1812 35.9742C33.684 35.9742 34.902 34.7579 34.902 33.2573C34.902 31.7567 33.684 30.5403 32.1812 30.5403C30.6785 30.5403 29.4605 31.7567 29.4605 33.2573Z" fill="white"/>
<path d="M30.5609 33.4859C30.5609 34.3035 31.2247 34.967 32.0435 34.967C32.8623 34.967 33.5267 34.3035 33.5267 33.4859C33.5267 32.6682 32.8623 32.0054 32.0435 32.0054C31.2247 32.0054 30.5609 32.6682 30.5609 33.4859Z" fill="#5A353E"/>
<path d="M31.4148 32.7987C31.2941 32.9192 31.0337 32.8543 30.8342 32.6551C30.634 32.4552 30.5691 32.1951 30.6897 32.0747C30.8103 31.9542 31.0708 32.0184 31.2709 32.2183C31.4711 32.4188 31.5354 32.6783 31.4148 32.7987Z" fill="white"/>
<path d="M32.5797 34.1147C32.4799 34.2152 32.2651 34.1617 32.0992 33.9959C31.9341 33.8301 31.8805 33.6153 31.9804 33.5154C32.0803 33.4155 32.2951 33.469 32.4609 33.6348C32.6261 33.8 32.6796 34.0155 32.5797 34.1147Z" fill="white"/>
<path d="M43.4207 32.92C43.4207 34.4205 44.6392 35.6365 46.1411 35.6365C47.6438 35.6365 48.8622 34.4205 48.8622 32.92C48.8622 31.4188 47.6438 30.2027 46.1411 30.2027C44.6392 30.2027 43.4207 31.4188 43.4207 32.92Z" fill="white"/>
<path d="M44.5209 33.1482C44.5209 33.9665 45.1847 34.6294 46.0041 34.6294C46.8228 34.6294 47.4867 33.9665 47.4867 33.1482C47.4867 32.3307 46.8228 31.6678 46.0041 31.6678C45.1847 31.6678 44.5209 32.3307 44.5209 33.1482Z" fill="#5A353E"/>
<path d="M45.3749 32.4604C45.2546 32.5812 44.9939 32.5168 44.7938 32.317C44.5937 32.1172 44.5292 31.8576 44.6496 31.7367C44.7706 31.6166 45.0305 31.681 45.2306 31.8808C45.4314 32.0806 45.4952 32.3402 45.3749 32.4604Z" fill="white"/>
<path d="M46.54 33.7773C46.4405 33.8768 46.225 33.8238 46.0593 33.6581C45.8942 33.4924 45.8405 33.2769 45.9401 33.1773C46.0403 33.0778 46.2551 33.1315 46.4208 33.2965C46.5865 33.4622 46.6396 33.6777 46.54 33.7773Z" fill="white"/>
<path d="M35.2595 35.9743C35.2595 36.0425 35.3143 36.0967 35.3826 36.0967C35.4502 36.0967 35.5051 36.0425 35.5051 35.9743C35.5051 35.9066 35.4502 35.8518 35.3826 35.8518C35.3143 35.8518 35.2595 35.9066 35.2595 35.9743Z" fill="#793025"/>
<path d="M33.0385 37.1944C33.0385 37.2619 33.0927 37.3167 33.1608 37.3167C33.2289 37.3167 33.2837 37.2619 33.2837 37.1944C33.2837 37.1263 33.2289 37.0715 33.1608 37.0715C33.0927 37.0715 33.0385 37.1263 33.0385 37.1944Z" fill="#793025"/>
<path d="M34.6565 37.4394C34.6565 37.5074 34.7113 37.5621 34.7792 37.5621C34.8471 37.5621 34.9018 37.5074 34.9018 37.4394C34.9018 37.3721 34.8471 37.3168 34.7792 37.3168C34.7113 37.3168 34.6565 37.3721 34.6565 37.4394Z" fill="#793025"/>
<path d="M33.602 38.9204C33.602 38.9879 33.6572 39.0431 33.7247 39.0431C33.7929 39.0431 33.8475 38.9879 33.8475 38.9204C33.8475 38.8522 33.7929 38.7976 33.7247 38.7976C33.6572 38.7976 33.602 38.8522 33.602 38.9204Z" fill="#793025"/>
<path d="M36.6588 37.4394C36.6588 37.5074 36.7141 37.5621 36.782 37.5621C36.8493 37.5621 36.9047 37.5074 36.9047 37.4394C36.9047 37.3721 36.8493 37.3168 36.782 37.3168C36.7141 37.3168 36.6588 37.3721 36.6588 37.4394Z" fill="#793025"/>
<path d="M35.4261 39.166C35.4261 39.2334 35.4811 39.2885 35.5491 39.2885C35.6165 39.2885 35.6716 39.2334 35.6716 39.166C35.6716 39.098 35.6165 39.043 35.5491 39.043C35.4811 39.043 35.4261 39.098 35.4261 39.166Z" fill="#793025"/>
<path d="M44.3588 35.9667C44.3588 36.0349 44.4143 36.0898 44.4819 36.0898C44.5495 36.0898 44.6044 36.0349 44.6044 35.9667C44.6044 35.899 44.5495 35.8442 44.4819 35.8442C44.4143 35.8442 44.3588 35.899 44.3588 35.9667Z" fill="#793025"/>
<path d="M42.1376 37.1862C42.1376 37.2537 42.1918 37.3085 42.2599 37.3085C42.328 37.3085 42.3822 37.2537 42.3822 37.1862C42.3822 37.1181 42.328 37.0633 42.2599 37.0633C42.1918 37.0633 42.1376 37.1181 42.1376 37.1862Z" fill="#793025"/>
<path d="M43.7559 37.4319C43.7559 37.4998 43.8113 37.5546 43.8792 37.5546C43.9465 37.5546 44.0012 37.4998 44.0012 37.4319C44.0012 37.3646 43.9465 37.3093 43.8792 37.3093C43.8113 37.3093 43.7559 37.3646 43.7559 37.4319Z" fill="#793025"/>
<path d="M42.7013 38.9128C42.7013 38.9804 42.7565 39.0349 42.8246 39.0349C42.8916 39.0349 42.9468 38.9804 42.9468 38.9128C42.9468 38.8446 42.8916 38.7901 42.8246 38.7901C42.7565 38.7901 42.7013 38.8446 42.7013 38.9128Z" fill="#793025"/>
<path d="M45.7583 37.4319C45.7583 37.4998 45.8137 37.5546 45.8816 37.5546C45.9489 37.5546 46.0043 37.4998 46.0043 37.4319C46.0043 37.3646 45.9489 37.3093 45.8816 37.3093C45.8137 37.3093 45.7583 37.3646 45.7583 37.4319Z" fill="#793025"/>
<path d="M44.5253 39.1578C44.5253 39.2252 44.5803 39.2803 44.6477 39.2803C44.7158 39.2803 44.7708 39.2252 44.7708 39.1578C44.7708 39.0898 44.7158 39.0348 44.6477 39.0348C44.5803 39.0348 44.5253 39.0898 44.5253 39.1578Z" fill="#793025"/>
<path d="M28.1083 29.198C28.1083 29.198 31.1114 28.0323 33.3049 28.44C35.4977 28.8464 31.1951 25.4377 28.1083 29.198Z" fill="#3C130D"/>
<path d="M50.3055 28.8061C50.3055 28.8061 47.3026 27.6413 45.1091 28.0476C42.9165 28.4547 47.2188 25.0463 50.3055 28.8061Z" fill="#3C130D"/>
<path d="M40.0327 26.6677C40.9896 26.3838 41.9778 25.6541 41.9495 24.6577C41.9331 24.0647 41.5566 23.5476 41.3899 22.9784C41.2225 22.4077 41.4137 21.6171 42.0023 21.5369C41.8751 22.2554 42.4796 22.9138 43.143 23.2192C43.8066 23.5253 44.5551 23.61 45.2148 23.9243C46.0216 24.3092 46.6292 25.004 47.3288 25.562C47.7946 25.9328 48.5649 26.4113 49.2525 26.4113C49.3523 26.4113 49.4498 26.4017 49.545 26.3794C49.4619 26.3853 49.3792 26.389 49.2972 26.389C49.0901 26.389 48.8881 26.3652 48.6966 26.2895C47.7647 25.9224 47.6598 24.6302 46.9679 23.9072C46.0756 22.9739 44.4487 23.2021 43.4612 22.3691C42.8047 21.8155 42.5759 20.9164 42.0998 20.2016C42.0879 20.1838 42.0753 20.166 42.0634 20.1481C42.0425 20.1177 42.0202 20.0872 41.9979 20.0575C41.384 19.2371 40.3757 18.7237 39.3496 18.7163C39.6019 18.8552 39.8571 18.9971 40.093 19.1621C40.2887 19.2981 40.4725 19.4504 40.6302 19.6295C40.977 20.0225 41.1846 20.5798 41.029 21.0792C41.0283 21.0821 41.0276 21.0844 41.0268 21.0866C41.0246 21.0918 41.0231 21.097 41.0216 21.1022C40.9971 21.175 40.9658 21.2456 40.9301 21.3155C40.7656 21.6379 40.5149 21.9292 40.494 22.2881C40.4873 22.4063 40.5052 22.5177 40.5402 22.6255C40.625 22.8811 40.8073 23.1122 40.9837 23.3477C41.0938 23.4941 41.2009 23.6434 41.2798 23.8025C41.3029 23.8485 41.323 23.8953 41.3401 23.9429C41.3401 23.9436 41.3401 23.9444 41.3401 23.9444C41.3408 23.9451 41.3408 23.9459 41.3408 23.9466C41.6251 24.7528 41.0826 25.7619 40.2567 25.9781C40.241 26.2203 40.1726 26.4529 40.0327 26.6677Z" fill="#612820"/>
<path d="M40.2559 25.9775C41.0825 25.7621 41.6252 24.7523 41.3405 23.9461C41.6244 24.7523 41.0818 25.7614 40.2559 25.9775ZM40.9839 23.3472C40.8075 23.1118 40.6251 22.8808 40.5398 22.6246C40.6243 22.8808 40.8075 23.1118 40.9839 23.3472ZM41.0291 21.0788C41.1841 20.5791 40.9765 20.0224 40.6303 19.6293C40.4724 19.4501 40.2885 19.2976 40.0928 19.1614C40.2885 19.2976 40.4716 19.4501 40.6295 19.6293C40.9765 20.0224 41.1841 20.5791 41.0291 21.0788ZM42.0997 20.2008C42.0871 20.183 42.0752 20.1653 42.0633 20.1482C42.0418 20.1171 42.0203 20.0868 41.9974 20.0572C42.0203 20.0868 42.0418 20.1171 42.0626 20.1475C42.0752 20.1653 42.0871 20.183 42.0997 20.2008Z" fill="#F0432F"/>
<path d="M26.9608 26.6548C27.3915 26.2032 27.8667 25.8005 28.4239 25.527C29.3816 25.0555 30.4872 25.0105 31.5085 24.7038C32.3663 24.4466 33.2403 23.8908 33.5504 23.0905C33.2758 24.0386 32.6978 24.8996 31.917 25.5071C32.1383 25.5418 32.3618 25.5588 32.5846 25.5588C34.2046 25.5588 35.8076 24.6646 36.6734 23.2989C36.2523 24.2434 35.9837 25.2551 35.8816 26.2838C36.0444 26.2919 36.2116 26.2978 36.3811 26.2978C37.2559 26.2978 38.1713 26.1478 38.6117 25.4324C38.9884 24.8168 38.8426 24.0335 38.8048 23.3129C38.7671 22.5924 38.9566 21.7196 39.6359 21.475C38.9943 22.1342 39.3133 23.2265 39.7092 24.0564C39.983 24.6313 40.2746 25.2935 40.2591 25.9032C40.3915 25.7857 40.4618 25.6091 40.4818 25.4147C40.4818 25.414 40.4818 25.414 40.4818 25.4132C40.4826 25.4125 40.4826 25.4118 40.4826 25.411C40.4826 25.4095 40.4826 25.4088 40.4826 25.4073C40.4826 25.4073 40.4826 25.4066 40.4826 25.4058C40.5048 25.1679 40.4515 24.9055 40.3434 24.6956C40.2872 24.5863 40.2213 24.4813 40.1532 24.3771C39.9379 24.0512 39.6944 23.7393 39.6278 23.3602C39.516 22.7195 39.9423 22.1135 40.0348 21.4691C40.0689 21.2333 40.0504 20.9931 39.9897 20.7648C39.8676 20.311 39.5767 19.8986 39.1889 19.6341C39.0113 19.5129 38.8137 19.4227 38.6028 19.3732C38.6812 19.691 38.7353 20.0294 38.7893 20.3679C38.8463 20.7293 38.9033 21.0907 38.9869 21.4299C38.7079 21.5533 38.4807 21.7772 38.3371 22.0455C38.2039 22.2953 38.1425 22.5828 38.178 22.8636C38.232 23.2848 38.4792 23.6943 38.5147 24.1007C38.5251 24.2212 38.5177 24.3416 38.4807 24.4614C38.3504 24.8856 37.9049 25.125 37.4823 25.2602C37.1989 25.3504 36.8984 25.4184 36.6298 25.5403C36.6298 25.5411 36.629 25.5411 36.6283 25.5411V25.5418C36.4973 25.6009 36.3737 25.6741 36.2634 25.7694C36.114 25.3245 36.481 24.8102 36.8562 24.5286C36.9976 24.4229 37.1471 24.3099 37.2796 24.1857C37.4994 23.9788 37.6696 23.7386 37.6651 23.4459C37.657 22.9597 37.1508 22.5828 37.1597 22.0965C37.1604 22.0573 37.1641 22.0189 37.1715 21.9812C37.2041 21.8024 37.3025 21.6383 37.4143 21.4875C37.4424 21.4491 37.472 21.4122 37.5008 21.3759C37.6703 21.1646 37.8568 20.9495 37.9145 20.685C37.9279 20.6221 37.9316 20.5549 37.9242 20.4891C37.902 20.2792 37.7784 20.079 37.5763 20.0383C37.4957 20.4633 36.9806 20.685 36.5809 20.852C36.4388 20.9104 36.2908 20.9717 36.151 21.0426C36.0081 21.1158 35.8749 21.1993 35.7646 21.3043C35.6773 21.387 35.6055 21.4824 35.5559 21.5954C35.3754 22.0034 35.5611 22.4675 35.7084 22.888C35.8031 23.1607 35.8742 23.477 35.8268 23.7526C35.8268 23.7526 35.8268 23.7526 35.8268 23.7534C35.8268 23.7534 35.8268 23.7541 35.8268 23.7549C35.8002 23.9034 35.741 24.0401 35.6314 24.1517C35.553 24.2315 35.4597 24.2877 35.3576 24.3283C35.2118 24.386 35.0468 24.4119 34.8788 24.4318C34.4932 24.4776 34.0914 24.4909 33.8649 24.7821C33.8649 24.7814 33.8649 24.7814 33.8649 24.7806C33.8649 24.7814 33.8649 24.7814 33.8649 24.7814C33.953 24.5042 34.1602 24.2988 34.3874 24.1133C34.4458 24.066 34.5051 24.0202 34.5643 23.9751C34.8373 23.7652 35.1119 23.4799 35.1156 23.1429C35.1163 23.1223 35.1156 23.1023 35.1134 23.0809C35.0823 22.7247 34.7537 22.4542 34.545 22.1608C34.4281 21.996 34.3489 21.8245 34.3792 21.6272C34.4569 21.1276 35.2022 20.9118 35.2451 20.427C35.2466 20.41 35.2473 20.3923 35.2466 20.3746C35.0853 20.1669 34.8292 20.0797 34.5517 20.0797C34.1328 20.0797 33.6636 20.2792 33.392 20.5697C33.2899 20.6776 33.2033 20.7966 33.1293 20.9229C32.9413 21.2422 32.8288 21.6095 32.7326 21.9782C32.6985 22.1105 32.6667 22.2428 32.6334 22.3729C32.4721 23.0136 32.2419 23.6928 31.6987 24.0697C30.7707 24.7119 29.42 24.1628 28.4076 24.6646C28.2863 24.7252 28.176 24.7969 28.0746 24.8774C28.0746 24.8782 28.0746 24.8782 28.0739 24.8782C28.0731 24.8789 28.0716 24.8797 28.0709 24.8804C28.0702 24.8811 28.0694 24.8811 28.0694 24.8819C28.068 24.8826 28.0665 24.8841 28.065 24.8856C28.0635 24.8863 28.0628 24.887 28.062 24.8878C28.0613 24.8878 28.0606 24.8885 28.0606 24.8893C28.0591 24.89 28.0568 24.8915 28.0554 24.893C28.0554 24.893 28.0554 24.893 28.0546 24.8937C28.0532 24.8944 28.0517 24.8959 28.0502 24.8974C27.5351 25.3238 27.262 25.9948 26.9608 26.6548Z" fill="#612820"/>
<path d="M26.9601 26.6556C26.9601 26.6548 26.9601 26.6548 26.9608 26.6548C27.262 25.9956 27.5351 25.3239 28.0502 24.8982C27.5351 25.3246 27.262 25.9964 26.9601 26.6556ZM40.2598 25.904C40.3923 25.7865 40.4626 25.6091 40.4818 25.4148C40.4626 25.6091 40.3923 25.7857 40.2598 25.904ZM37.4823 25.2603C37.9056 25.1258 38.3512 24.8856 38.4807 24.4622C38.5177 24.3417 38.5251 24.2212 38.5147 24.1008C38.5251 24.2212 38.5169 24.3417 38.4807 24.4614C38.3512 24.8856 37.9056 25.1258 37.4823 25.2603ZM40.4818 25.4133C40.4818 25.4125 40.4826 25.4118 40.4826 25.4111C40.4826 25.4118 40.4826 25.4125 40.4818 25.4133ZM28.0554 24.893C28.0568 24.8923 28.0591 24.8908 28.0605 24.8893C28.0591 24.8908 28.0576 24.8923 28.0554 24.893ZM33.8649 24.7822C34.0921 24.4917 34.4932 24.4784 34.8795 24.4326C34.4939 24.4784 34.0921 24.491 33.8656 24.7814L33.8649 24.7822ZM40.1532 24.3779C39.9379 24.052 39.6944 23.7394 39.6285 23.3603C39.516 22.7195 39.9423 22.1135 40.0356 21.4691C40.0689 21.2334 40.0511 20.9939 39.9897 20.7648C40.0511 20.9939 40.0689 21.2334 40.0348 21.4699C39.9423 22.1135 39.516 22.7195 39.6285 23.3603C39.6944 23.7401 39.9379 24.052 40.1532 24.3779ZM37.2796 24.1858C37.5001 23.9788 37.6703 23.7394 37.6651 23.4467C37.6577 22.9597 37.15 22.5828 37.1597 22.0965C37.1508 22.5828 37.657 22.9597 37.6651 23.446C37.6703 23.7394 37.5001 23.9788 37.2796 24.1858ZM34.3874 24.1141C34.4458 24.0668 34.505 24.021 34.5635 23.9759C34.8373 23.7653 35.1119 23.4807 35.1156 23.143C35.1119 23.48 34.8373 23.7653 34.5642 23.9751C34.505 24.021 34.4458 24.0668 34.3874 24.1141ZM34.545 22.1608C34.4281 21.9968 34.3489 21.8253 34.38 21.628C34.4577 21.1284 35.2029 20.9126 35.2451 20.4271C35.2022 20.9126 34.4577 21.1284 34.38 21.6273C34.3489 21.8253 34.4281 21.9968 34.545 22.1608ZM38.3371 22.0463C38.4814 21.778 38.7079 21.5541 38.9869 21.4299C38.9033 21.0915 38.847 20.7293 38.7893 20.368C38.847 20.7293 38.9033 21.0907 38.9861 21.4299C38.7079 21.5534 38.4807 21.7773 38.3371 22.0463ZM32.7333 21.979C32.8295 21.6095 32.9413 21.2422 33.1293 20.923C32.9413 21.2422 32.8288 21.6095 32.7333 21.979ZM37.5008 21.376C37.671 21.1646 37.8575 20.9503 37.9145 20.6857C37.8568 20.9503 37.671 21.1646 37.5008 21.376Z" fill="#F0432F"/>
<path d="M40.0766 26.0113C40.1375 26.0043 40.1976 25.9931 40.2563 25.9777C40.2577 25.9526 40.2591 25.9281 40.2591 25.9036C40.2081 25.9491 40.1472 25.9861 40.0766 26.0113Z" fill="#F14F36"/>
<path d="M30.5049 52.5638C30.5397 52.5638 30.5751 52.5557 30.6087 52.5395C30.7265 52.4815 30.7746 52.3396 30.7172 52.2225C30.5878 51.9612 30.5867 51.6385 30.5855 51.2967C30.5838 50.8436 30.582 50.3755 30.2797 49.9885C30.0842 49.7388 29.8109 49.5916 29.5464 49.4491C29.2516 49.2903 28.9969 49.1536 28.914 48.9126C28.8519 48.7312 28.9012 48.5122 28.9528 48.2805C28.9703 48.2029 28.9882 48.1217 29.0027 48.0406C29.1785 47.0337 28.6616 45.9346 27.7727 45.4277C27.7362 45.4062 27.6956 45.3964 27.6555 45.3964C27.5732 45.3964 27.4931 45.4393 27.4496 45.5157C27.3846 45.6293 27.424 45.7735 27.5378 45.8384C28.2595 46.2504 28.679 47.142 28.5357 47.9589C28.5235 48.0296 28.5073 48.1015 28.4904 48.1774C28.4295 48.4497 28.3605 48.7585 28.4661 49.0655C28.6088 49.4821 28.9877 49.686 29.3218 49.8657C29.5533 49.9902 29.7721 50.1078 29.9061 50.2799C30.1086 50.5389 30.1097 50.9079 30.1115 51.2984C30.1132 51.6785 30.1144 52.0719 30.2919 52.4311C30.3331 52.5151 30.4172 52.5638 30.5049 52.5638Z" fill="#612820"/>
<path d="M33.609 51.7414C33.6732 51.7414 33.7374 51.7153 33.784 51.6637C33.8726 51.5672 33.8653 51.4175 33.7681 51.3295C33.3665 50.9647 33.2585 50.3078 33.5227 49.8335C33.5778 49.7342 33.6494 49.6361 33.7249 49.5317C33.9045 49.2872 34.1073 49.0092 34.1113 48.6547C34.1147 48.3307 33.9357 47.9988 33.6318 47.7668C33.3812 47.5751 33.0852 47.4695 32.8239 47.3765C32.7978 47.3669 32.7705 47.3623 32.7438 47.3623C32.6467 47.3623 32.5558 47.423 32.5211 47.5195C32.4768 47.6426 32.541 47.7776 32.6643 47.8218C32.904 47.9075 33.1517 47.996 33.3437 48.1424C33.5301 48.2848 33.6397 48.4743 33.638 48.6495C33.6357 48.8526 33.5 49.0382 33.3426 49.2532C33.2619 49.3638 33.1778 49.479 33.108 49.6043C32.7364 50.2726 32.883 51.165 33.4494 51.6796C33.4949 51.721 33.5522 51.7414 33.609 51.7414Z" fill="#612820"/>
<path d="M51.2447 52.3456C51.2774 52.3456 51.3101 52.3391 51.3415 52.3249C51.4608 52.2709 51.5143 52.131 51.4603 52.0119C51.3451 51.7552 51.4092 51.4137 51.6562 50.9685C51.6876 50.9121 51.7197 50.8558 51.7518 50.7995C51.9542 50.4468 52.1638 50.0816 52.1727 49.6464C52.1798 49.3512 52.0902 49.0796 52.0041 48.8164C51.9126 48.539 51.8266 48.2769 51.8752 48.0333C51.9358 47.725 52.2 47.4896 52.479 47.24C52.6393 47.0966 52.8049 46.9484 52.9445 46.7764C53.68 45.8706 53.4901 44.6078 53.1748 43.3776C53.1469 43.2709 53.0513 43.1998 52.9457 43.1998C52.9261 43.1998 52.9065 43.2022 52.8863 43.2069C52.7592 43.2395 52.6832 43.3687 52.7159 43.495C52.9997 44.6054 53.1802 45.7348 52.5764 46.4782C52.4606 46.6211 52.3163 46.7503 52.1626 46.8873C51.8378 47.1772 51.5018 47.4778 51.4098 47.942C51.338 48.3066 51.4478 48.6409 51.5535 48.964C51.6312 49.1994 51.7043 49.4217 51.6989 49.6363C51.6924 49.9511 51.5214 50.2487 51.3409 50.5641C51.3077 50.6228 51.2738 50.6809 51.2418 50.739C50.9176 51.3242 50.8476 51.8038 51.0286 52.2063C51.0678 52.2935 51.1539 52.3456 51.2447 52.3456Z" fill="#612820"/>
<path d="M48.8471 52.0331C48.9358 52.0331 49.0206 51.9833 49.0612 51.8982C49.2455 51.5106 48.9782 51.0932 48.6187 50.8811C48.5334 50.8308 48.4458 50.7885 48.3616 50.7479C48.1967 50.6679 48.041 50.593 47.9471 50.4775C47.82 50.3203 47.8028 50.0642 47.9053 49.8401C47.9981 49.6343 48.1824 49.4456 48.4526 49.2787C48.5139 49.2404 48.5792 49.2032 48.6439 49.1655C48.9616 48.9837 49.3211 48.7779 49.4642 48.3834C49.5787 48.0661 49.5135 47.6802 49.2908 47.3498C49.1064 47.0776 48.8477 46.8758 48.6187 46.698C48.5757 46.6637 48.5242 46.6477 48.4732 46.6477C48.4028 46.6477 48.333 46.6792 48.286 46.7386C48.2059 46.8415 48.2242 46.9907 48.3273 47.0708C48.5379 47.2348 48.7561 47.4046 48.898 47.615C49.0349 47.8168 49.0807 48.0501 49.0183 48.2227C48.9347 48.4537 48.6788 48.6001 48.408 48.7556C48.3387 48.7956 48.2689 48.835 48.203 48.8762C47.8521 49.0934 47.6065 49.3513 47.4737 49.644C47.2962 50.0339 47.338 50.4775 47.579 50.7754C47.7393 50.9726 47.9603 51.0795 48.1549 51.1738C48.2345 51.2116 48.3089 51.2481 48.3776 51.2882C48.5431 51.3859 48.6897 51.5774 48.6335 51.6952C48.5769 51.813 48.6273 51.9542 48.7452 52.0096C48.7784 52.0257 48.8127 52.0331 48.8471 52.0331Z" fill="#612820"/>
</svg>
